<svg xmlns="http://www.w3.org/2000/svg" viewBox="545 80 300 415">
<g>
<path d="M 0.00 0.00 L 1387.00 0.00 L 1387.00 756.00 L 0.00 756.00 ZM 683.09 439.19 C688.63,445.14 693.50,450.00 693.92,450.00 C695.25,450.00 717.78,424.94 733.48,406.00 C765.89,366.90 785.58,329.19 789.86,298.00 C792.55,278.44 792.14,263.47 788.45,245.27 C786.70,236.69 780.44,217.29 776.90,209.50 L 774.63 204.50 L 773.70 208.00 C770.68,219.37 767.39,229.53 764.32,236.97 C756.80,255.20 740.63,280.14 723.13,300.50 C713.52,311.68 674.40,351.12 663.33,360.80 L 656.15 367.07 L 651.58 360.66 C649.06,357.13 647.00,353.99 647.00,353.67 C647.00,353.35 651.36,346.43 656.68,338.30 C669.22,319.14 681.10,299.20 688.00,285.75 C691.03,279.85 693.83,275.02 694.24,275.01 C694.65,275.01 697.71,280.43 701.03,287.07 C704.61,294.20 707.58,298.97 708.29,298.74 C708.96,298.52 712.82,294.44 716.87,289.68 L 724.25 281.02 L 713.72 259.76 C701.47,235.02 697.71,226.92 696.05,221.75 C695.39,219.69 694.54,218.01 694.17,218.01 C693.80,218.02 691.73,222.41 689.57,227.76 C684.34,240.72 668.93,270.82 657.69,290.00 C649.83,303.42 646.36,309.11 638.15,322.00 C637.27,323.38 636.60,324.73 636.66,325.00 C636.72,325.27 635.78,326.53 634.57,327.78 L 632.37 330.07 L 626.23 317.78 C620.61,306.53 618.89,301.49 613.33,280.00 C611.11,271.44 610.48,246.85 612.27,239.21 C614.31,230.52 612.62,231.64 606.93,242.73 C599.34,257.53 597.49,265.63 597.53,284.00 C597.57,302.32 599.02,309.94 605.74,327.00 C615.98,353.02 635.25,383.41 659.68,412.05 C663.98,417.09 668.74,422.83 670.26,424.80 C671.78,426.77 677.55,433.25 683.09,439.19 ZM 626.08 280.30 L 627.15 284.28 L 629.24 280.89 C640.84,262.02 673.70,198.86 686.55,170.75 C690.26,162.64 693.61,156.00 694.01,156.00 C694.40,156.00 695.98,158.81 697.52,162.25 C709.20,188.40 741.57,251.92 743.24,251.98 C743.65,251.99 746.91,246.16 750.49,239.03 L 756.99 226.05 L 751.65 216.28 C743.43,201.21 711.52,137.48 707.70,128.50 C698.80,107.57 694.66,98.95 693.67,99.28 C693.08,99.47 687.14,111.53 680.47,126.07 C668.14,152.94 645.77,198.66 630.91,227.34 L 622.70 243.19 L 622.78 254.34 C622.85,264.94 623.67,271.34 626.08,280.30 ZM 841.25 578.45 C848.28,580.35 861.22,580.35 868.46,578.47 C892.08,572.32 906.68,546.84 900.42,522.69 C897.22,510.36 891.20,502.68 880.67,497.51 C872.54,493.52 865.69,491.99 856.11,492.02 C833.19,492.08 816.85,502.95 810.89,522.09 C808.81,528.80 808.43,539.83 810.06,546.89 C813.49,561.77 825.89,574.32 841.25,578.45 ZM 498.69 451.31 C499.25,452.21 509.77,451.55 521.86,449.86 C533.65,448.21 544.52,444.50 559.50,437.02 C577.85,427.86 591.75,417.42 609.76,399.28 L 624.03 384.91 L 621.67 381.70 C620.37,379.94 617.13,374.95 614.47,370.61 L 609.62 362.72 L 605.63 367.61 C597.83,377.18 575.35,398.79 566.00,405.71 C556.50,412.73 547.00,418.69 547.00,417.62 C547.00,417.31 552.10,408.60 558.33,398.28 C569.40,379.93 582.43,357.29 590.86,341.74 L 595.06 333.98 L 592.03 324.93 C590.36,319.96 588.48,312.76 587.85,308.94 C587.22,305.12 586.32,302.00 585.84,302.00 C585.36,302.00 584.19,303.69 583.23,305.75 C582.28,307.81 581.23,309.73 580.90,310.00 C579.90,310.82 572.09,325.43 572.13,326.39 C572.15,326.88 571.76,327.55 571.25,327.89 C570.75,328.22 567.82,333.00 564.74,338.50 C553.35,358.87 522.87,410.33 505.23,438.98 C501.35,445.29 498.40,450.84 498.69,451.31 ZM 864.50 449.39 C875.03,451.27 890.41,451.49 889.38,449.75 C888.98,449.06 885.13,443.15 880.83,436.61 C876.52,430.07 873.00,424.20 873.00,423.55 C873.00,422.91 872.16,421.47 871.12,420.36 C870.09,419.25 868.93,417.37 868.55,416.17 C868.18,414.98 867.45,414.00 866.93,414.00 C866.42,414.00 866.00,413.33 866.00,412.50 C866.00,411.67 865.56,411.00 865.02,411.00 C864.48,411.00 863.76,409.88 863.41,408.50 C863.07,407.12 862.42,406.00 861.97,406.00 C861.52,406.00 860.64,404.42 860.00,402.50 C859.36,400.58 858.43,399.00 857.92,399.00 C857.42,399.00 857.00,398.36 857.00,397.57 C857.00,396.79 856.38,395.53 855.63,394.77 C854.88,394.02 853.95,392.42 853.56,391.20 C853.18,389.99 852.45,389.00 851.93,389.00 C851.42,389.00 851.00,388.33 851.00,387.50 C851.00,386.67 850.56,386.00 850.02,386.00 C849.48,386.00 848.76,384.88 848.41,383.50 C848.07,382.12 847.42,381.00 846.97,381.00 C846.52,381.00 845.64,379.42 845.00,377.50 C844.36,375.58 843.44,374.00 842.94,374.00 C842.44,374.00 841.76,372.88 841.41,371.50 C841.07,370.12 840.41,369.00 839.96,369.00 C839.51,369.00 838.82,367.99 838.43,366.75 C838.05,365.51 837.38,364.27 836.95,363.99 C836.51,363.71 836.01,362.85 835.83,362.07 C835.65,361.30 831.53,353.67 826.69,345.12 C821.84,336.58 814.49,323.38 810.36,315.80 C806.22,308.22 802.48,301.80 802.04,301.53 C801.61,301.26 800.95,303.32 800.58,306.12 C800.21,308.91 798.34,316.37 796.42,322.70 L 792.93 334.21 L 795.33 338.35 C796.65,340.63 799.88,346.55 802.51,351.50 C810.62,366.77 825.51,392.07 837.08,410.25 C841.40,417.04 841.76,418.00 840.01,418.00 C838.90,418.00 838.00,417.52 838.00,416.94 C838.00,416.36 837.55,416.16 837.00,416.50 C836.45,416.84 836.00,416.64 836.00,416.06 C836.00,415.48 835.33,415.00 834.50,415.00 C833.67,415.00 833.00,414.55 833.00,414.00 C833.00,413.45 832.33,413.00 831.50,413.00 C830.67,413.00 830.00,412.55 830.00,412.00 C830.00,411.45 829.33,411.00 828.50,411.00 C827.67,411.00 827.00,410.55 827.00,410.00 C827.00,409.45 826.37,409.00 825.61,409.00 C824.84,409.00 823.95,408.33 823.64,407.50 C823.32,406.67 822.42,406.00 821.64,406.00 C820.85,406.00 819.95,405.33 819.64,404.50 C819.32,403.67 818.41,403.00 817.61,403.00 C816.07,403.00 789.00,377.02 789.00,375.53 C789.00,375.05 786.59,372.30 783.64,369.42 C778.77,364.66 778.15,364.34 776.86,365.85 C776.09,366.76 775.29,367.95 775.09,368.50 C774.90,369.05 772.98,372.09 770.83,375.25 C768.68,378.41 767.28,381.01 767.71,381.03 C768.15,381.05 767.65,381.71 766.60,382.50 C764.78,383.88 764.84,384.10 768.23,388.22 C773.11,394.15 791.36,411.94 798.00,417.23 C819.39,434.29 842.51,445.47 864.50,449.39 ZM 866.19 572.82 C853.04,576.76 837.23,569.66 830.76,556.90 C826.34,548.19 824.69,539.87 825.23,529.00 C825.82,517.12 828.33,510.84 834.98,504.62 C840.43,499.52 844.77,498.01 854.00,498.02 C864.78,498.02 875.11,504.32 879.86,513.78 C891.45,536.87 884.40,567.37 866.19,572.82 ZM 704.00 401.81 C698.78,407.89 694.21,412.89 693.85,412.93 C692.81,413.04 670.91,387.16 671.07,386.00 C671.11,385.73 674.76,382.35 679.19,378.50 C683.63,374.65 695.70,363.08 706.02,352.79 C733.03,325.87 747.65,308.61 760.63,288.34 C761.32,287.27 761.95,286.27 762.53,285.36 C766.32,279.43 767.94,276.89 768.54,277.11 C768.99,277.28 768.86,278.99 768.64,281.99 C768.59,282.61 768.54,283.28 768.50,284.00 C767.46,299.26 762.55,314.94 752.83,334.00 C749.05,341.42 745.18,348.71 744.23,350.20 C735.72,363.46 723.56,379.07 704.00,401.81 ZM 548.42 578.08 C548.75,578.41 581.18,578.42 584.31,578.09 C584.75,578.04 584.84,577.55 584.50,577.00 C584.16,576.45 582.38,576.00 580.55,576.00 C578.72,576.00 576.22,575.19 574.99,574.20 C572.84,572.45 572.76,571.74 572.63,553.95 L 572.50 535.50 L 594.75 535.23 L 617.00 534.96 L 616.95 551.73 C616.90,571.48 615.84,575.27 610.25,575.81 C608.46,575.99 607.00,576.55 607.00,577.06 C607.00,577.61 614.48,578.00 625.00,578.00 C637.13,578.00 643.00,577.65 643.00,576.93 C643.00,576.34 641.99,575.97 640.75,576.11 C637.35,576.50 634.14,575.12 632.79,572.68 C631.19,569.80 630.55,504.31 632.08,500.28 C633.35,496.96 634.67,496.04 638.19,496.02 C639.67,496.01 641.16,495.55 641.50,495.00 C641.90,494.35 635.82,494.00 624.00,494.00 C612.18,494.00 606.10,494.35 606.50,495.00 C606.84,495.55 608.66,496.00 610.54,496.00 C615.76,496.00 616.81,498.50 617.03,511.50 C617.14,517.55 617.17,523.97 617.11,525.77 L 617.00 529.04 L 594.75 528.77 L 572.50 528.50 L 572.73 514.10 C572.99,498.20 573.76,496.00 579.10,496.00 C580.63,496.00 582.16,495.55 582.50,495.00 C582.90,494.35 576.84,494.00 565.06,494.00 C553.69,494.00 547.00,494.37 547.00,495.00 C547.00,495.55 548.54,496.00 550.43,496.00 C554.16,496.00 556.68,497.89 557.55,501.34 C557.85,502.55 557.97,518.63 557.80,537.07 C557.53,567.17 557.32,570.87 555.73,573.30 C554.46,575.23 553.11,576.00 550.98,576.00 C548.33,576.00 547.23,576.89 548.42,578.08 ZM 966.54 548.72 C992.54,575.14 998.00,580.24 999.22,579.24 C1000.43,578.23 1000.79,571.40 1001.36,539.04 C1001.73,517.60 1002.31,499.36 1002.63,498.52 C1002.96,497.67 1004.30,496.71 1005.61,496.38 C1011.38,494.94 1007.00,494.00 994.44,494.00 C985.66,494.00 981.10,494.35 981.50,495.00 C981.84,495.55 983.60,496.00 985.40,496.00 C991.74,496.00 991.92,496.72 993.09,526.94 C993.67,541.93 993.89,554.44 993.57,554.76 C993.26,555.07 979.01,541.08 961.91,523.67 C942.63,504.03 930.09,492.00 928.91,492.00 C927.14,492.00 926.99,492.90 926.89,504.25 C926.83,510.99 926.49,529.25 926.14,544.83 C925.54,571.32 925.37,573.26 923.56,574.58 C922.49,575.36 920.35,576.00 918.81,576.00 C915.97,576.00 914.95,577.44 917.25,578.20 C917.94,578.42 924.76,578.58 932.42,578.55 C942.58,578.50 946.45,578.15 946.75,577.24 C947.02,576.43 946.09,576.00 944.04,576.00 C942.09,576.00 940.02,575.12 938.56,573.65 C936.53,571.63 936.13,570.00 935.63,561.90 C934.48,543.16 933.87,517.00 934.59,517.00 C934.99,517.00 949.37,531.28 966.54,548.72 ZM 677.25 578.25 C686.19,578.42 698.22,578.65 704.00,578.76 C709.78,578.88 715.07,578.61 715.77,578.16 C716.47,577.72 717.48,574.69 718.02,571.43 C719.25,563.90 719.25,562.00 718.00,562.00 C717.45,562.00 717.00,562.69 717.00,563.54 C717.00,566.31 713.91,569.86 710.93,570.52 C709.32,570.87 708.00,571.46 708.00,571.83 C708.00,572.20 704.18,572.50 699.50,572.50 C694.83,572.50 691.00,572.14 691.00,571.69 C691.00,571.25 690.55,571.16 690.00,571.50 C689.45,571.84 689.00,571.61 689.00,571.00 C689.00,570.39 688.60,570.13 688.11,570.43 C687.63,570.73 686.95,569.97 686.60,568.74 C685.61,565.16 684.64,541.57 685.37,538.65 C686.04,536.01 686.06,536.00 695.95,536.00 C705.46,536.00 705.94,536.11 707.93,538.63 C709.07,540.08 710.00,542.11 710.00,543.13 C710.00,546.16 711.70,545.26 712.38,541.88 C712.72,540.16 713.00,536.43 713.00,533.59 L 713.00 528.43 L 705.75 528.83 C701.76,529.05 698.35,529.63 698.17,530.12 C697.65,531.50 687.39,531.17 686.20,529.74 C685.38,528.75 684.47,508.52 684.92,501.25 C684.98,500.34 687.61,500.00 694.53,500.00 C706.26,500.00 710.51,501.48 711.48,505.90 C713.00,512.83 714.42,510.07 715.29,498.50 L 715.66 493.50 L 693.58 493.77 C681.44,493.92 669.47,494.15 667.00,494.27 L 662.50 494.50 L 666.28 496.21 L 670.07 497.93 L 669.78 535.54 C669.51,571.45 669.41,573.23 667.56,574.58 C666.49,575.36 664.58,576.00 663.31,576.00 C662.04,576.00 661.00,576.44 661.00,576.98 C661.00,577.56 667.56,578.07 677.25,578.25 ZM 378.04 578.17 C378.61,578.35 390.92,578.62 405.40,578.77 C426.67,579.00 431.93,578.79 432.85,577.68 C434.33,575.90 435.49,561.00 434.15,561.00 C433.60,561.00 432.87,562.34 432.51,563.97 C431.60,568.11 426.71,571.97 422.17,572.13 C408.02,572.62 407.79,572.59 404.84,569.85 L 402.00 567.20 L 402.00 536.00 L 406.75 535.81 C420.56,535.25 425.62,536.83 426.66,542.05 C426.98,543.67 427.58,545.00 427.98,545.00 C428.67,545.00 430.26,527.93 429.63,527.29 C429.46,527.13 427.94,527.68 426.24,528.53 C423.92,529.69 420.58,530.00 412.83,529.79 L 402.50 529.50 L 401.72 520.00 C401.29,514.78 401.21,508.10 401.55,505.16 L 402.17 499.83 L 412.98 500.16 C424.98,500.54 427.31,501.59 428.54,507.20 C429.57,511.86 430.68,509.26 431.37,500.63 L 432.00 492.75 L 428.88 493.37 C427.17,493.72 415.92,494.02 403.89,494.04 C390.18,494.07 382.00,494.46 382.00,495.08 C382.00,495.62 382.67,496.32 383.49,496.63 C386.66,497.85 387.16,503.99 386.83,537.55 C386.53,567.16 386.32,570.87 384.73,573.30 C383.46,575.23 382.11,576.00 379.98,576.00 C377.14,576.00 375.84,577.46 378.04,578.17 ZM 487.72 578.49 C495.59,580.49 518.94,579.98 524.25,577.71 C526.31,576.82 528.00,575.97 528.00,575.80 C528.00,575.64 528.68,571.67 529.50,567.00 L 529.69 565.91 C530.87,559.22 531.17,557.55 530.58,557.13 C530.38,556.99 530.09,557.00 529.69,557.00 C529.63,557.00 529.57,557.00 529.50,557.00 C528.67,557.00 528.00,557.53 528.00,558.18 C528.00,558.84 527.07,561.29 525.93,563.65 C524.30,567.02 522.72,568.48 518.46,570.56 C513.62,572.93 512.16,573.17 504.18,572.85 C496.37,572.54 494.46,572.07 488.45,569.00 C480.38,564.88 474.42,558.21 470.87,549.34 C468.90,544.42 468.53,541.70 468.52,532.00 C468.50,521.61 468.76,519.97 471.14,515.00 C474.53,507.92 478.79,503.45 484.74,500.70 C488.73,498.86 491.28,498.50 500.50,498.50 C510.23,498.50 512.08,498.79 516.50,501.00 C522.16,503.83 525.52,508.20 526.50,514.02 C526.87,516.21 527.52,518.00 527.94,518.00 C529.39,518.00 530.70,495.02 529.25,494.98 C528.84,494.97 524.22,494.31 519.00,493.50 C499.26,490.46 482.54,492.43 471.43,499.10 C464.32,503.37 459.62,508.70 455.63,517.00 C452.66,523.17 452.50,524.11 452.50,535.52 C452.50,547.08 452.63,547.80 455.77,554.18 C461.45,565.72 473.52,574.90 487.72,578.49 ZM 753.02 578.26 C760.98,578.44 773.57,578.57 781.00,578.54 L 794.49 578.50 L 795.65 574.98 C797.52,569.25 798.41,560.00 797.09,560.00 C796.46,560.00 795.50,561.24 794.95,562.75 C793.20,567.60 791.69,570.00 790.41,570.00 C789.73,570.00 789.00,570.51 788.79,571.13 C788.26,572.71 769.00,573.69 769.00,572.14 C769.00,571.51 768.11,571.00 767.02,571.00 C765.94,571.00 764.25,569.78 763.27,568.30 C761.69,565.89 761.46,562.24 761.15,535.10 C760.81,505.31 761.44,497.00 764.04,497.00 C764.57,497.00 765.00,496.33 765.00,495.50 C765.00,494.24 762.83,494.00 751.44,494.00 C742.66,494.00 738.10,494.35 738.50,495.00 C738.84,495.55 739.96,496.00 740.99,496.00 C742.02,496.00 743.56,496.71 744.43,497.57 C745.80,498.94 746.00,503.77 746.00,535.35 C746.00,575.63 745.94,576.00 739.74,576.00 C737.71,576.00 736.94,576.34 737.57,576.97 C738.11,577.51 745.06,578.09 753.02,578.26 ZM 1329.93 720.75 C1330.65,722.54 1331.58,724.00 1331.99,724.00 C1332.39,724.00 1333.54,721.88 1334.53,719.29 C1336.84,713.24 1344.24,705.84 1350.29,703.53 C1355.49,701.54 1356.14,700.47 1352.75,699.48 C1345.32,697.32 1335.26,687.03 1333.46,679.75 C1333.09,678.24 1332.46,677.00 1332.08,677.00 C1331.69,677.00 1330.36,679.44 1329.12,682.42 C1326.38,689.04 1319.31,695.95 1312.72,698.47 C1307.32,700.53 1306.84,701.51 1310.75,702.44 C1317.92,704.16 1326.55,712.40 1329.93,720.75 ZM 691.50 656.00 C691.11,656.64 693.89,656.99 699.19,656.96 C706.93,656.92 707.29,656.83 704.49,655.61 C700.78,653.99 699.91,652.33 690.07,628.00 C685.61,616.99 681.56,608.37 680.77,608.21 C679.22,607.89 676.63,612.60 677.55,614.07 C677.86,614.58 677.61,615.00 677.00,615.00 C676.39,615.00 676.16,615.45 676.50,616.00 C676.84,616.55 676.66,617.00 676.09,617.00 C675.53,617.00 675.32,617.67 675.64,618.50 C675.95,619.33 675.69,620.00 675.05,620.00 C674.41,620.00 674.16,620.45 674.50,621.00 C674.84,621.55 674.59,622.00 673.95,622.00 C673.31,622.00 673.05,622.67 673.36,623.50 C673.68,624.33 673.47,625.00 672.91,625.00 C672.34,625.00 672.16,625.45 672.50,626.00 C672.84,626.55 672.59,627.00 671.95,627.00 C671.31,627.00 671.05,627.67 671.36,628.50 C671.68,629.33 671.47,630.00 670.91,630.00 C670.34,630.00 670.16,630.45 670.50,631.00 C670.84,631.55 670.61,632.00 670.00,632.00 C669.39,632.00 669.16,632.45 669.50,633.01 C669.85,633.56 669.42,634.72 668.56,635.58 C667.17,636.98 666.54,639.09 666.88,641.25 C666.95,641.66 666.52,642.00 665.94,642.00 C665.36,642.00 665.16,642.45 665.50,643.00 C665.84,643.55 665.69,644.00 665.16,644.00 C664.01,644.00 661.91,649.58 662.75,650.41 C663.07,650.74 662.92,651.00 662.42,651.00 C661.91,651.00 661.44,652.13 661.36,653.50 C661.25,655.26 661.72,656.00 662.94,656.00 C664.88,656.00 666.00,654.11 669.09,645.62 L 671.24 639.75 L 678.81 640.43 C682.97,640.81 686.68,641.30 687.05,641.53 C688.23,642.26 692.14,654.96 691.50,656.00 ZM 713.00 656.11 C711.62,656.49 715.45,656.77 721.50,656.74 C727.55,656.71 731.04,656.50 729.25,656.28 C726.89,655.98 725.89,655.28 725.56,653.69 C724.47,648.31 723.93,631.00 724.57,621.49 C725.24,611.44 725.36,611.04 727.88,610.12 C729.88,609.39 728.23,609.15 721.00,609.14 C714.30,609.13 712.17,609.40 713.77,610.04 L 716.04 610.95 L 715.77 633.18 L 715.50 655.41 ZM 753.16 632.91 L 752.82 635.33 L 786.07 634.66 C804.36,634.30 827.44,634.00 837.36,634.00 C848.01,634.00 855.01,633.63 854.45,633.11 C853.93,632.61 832.58,631.88 807.00,631.48 C781.42,631.08 758.92,630.70 757.00,630.63 C754.02,630.52 753.45,630.86 753.16,632.91 ZM 563.00 634.02 C580.33,634.31 603.39,634.65 614.25,634.77 L 634.00 635.00 L 634.00 632.36 C634.00,629.79 633.88,629.74 629.25,630.38 C626.64,630.74 604.25,631.28 579.50,631.58 C554.75,631.88 533.83,632.44 533.00,632.81 C532.17,633.19 545.67,633.73 563.00,634.02 ZM 685.00 636.25 C685.00,636.66 682.30,637.00 679.00,637.00 C675.70,637.00 673.00,636.66 673.00,636.25 C672.98,634.37 678.36,621.00 679.13,621.00 C679.61,621.00 680.00,621.16 680.00,621.35 C680.00,621.55 681.12,624.81 682.50,628.60 C683.88,632.39 685.00,635.83 685.00,636.25 Z" #080808_PLACEHOLDER/>
<path d="M 884.56 450.09 C884.74,450.39 885.33,450.66 886.07,450.83 C883.98,450.98 881.10,450.97 877.92,450.82 C879.41,450.61 880.00,450.02 880.00,449.05 C880.00,447.98 879.40,446.74 878.66,446.30 C877.92,445.86 876.52,444.26 875.54,442.75 C874.57,441.24 872.58,439.43 871.13,438.73 C869.19,437.79 868.49,436.69 868.46,434.51 C868.43,432.01 867.94,431.47 865.22,430.91 C863.46,430.55 861.32,429.68 860.48,428.99 C859.64,428.29 858.68,427.99 858.34,428.32 C858.01,428.66 856.78,428.41 855.62,427.77 C854.45,427.13 852.60,426.59 851.50,426.56 C849.99,426.51 849.42,425.70 849.19,423.25 C849.00,421.29 848.10,419.59 846.94,418.97 C845.87,418.40 845.00,417.10 845.00,416.09 C845.00,415.07 844.30,413.66 843.43,412.95 C842.57,412.23 841.15,410.26 840.28,408.57 C838.74,405.58 830.00,396.02 830.00,397.32 C830.00,397.68 832.68,402.48 835.94,407.99 C837.42,410.48 838.52,412.37 839.29,413.80 C838.72,412.84 837.99,411.67 837.08,410.25 C825.51,392.07 810.62,366.77 802.51,351.50 C800.58,347.87 798.33,343.73 796.75,340.87 L 797.85 342.82 C800.54,347.59 803.14,351.54 803.62,351.59 C804.10,351.63 805.29,352.02 806.25,352.44 C807.21,352.87 808.68,352.95 809.51,352.64 C810.34,352.32 812.25,352.56 813.76,353.17 C815.27,353.78 818.43,354.41 820.79,354.59 C823.15,354.76 826.42,355.56 828.06,356.38 C830.02,357.36 830.84,357.46 830.47,356.68 C830.16,356.03 830.92,356.74 832.15,358.25 C834.99,361.73 835.66,361.88 834.10,358.56 C835.13,360.50 835.76,361.78 835.83,362.07 C836.01,362.85 836.51,363.71 836.95,363.99 C837.38,364.27 838.05,365.51 838.43,366.75 C838.82,367.99 839.51,369.00 839.96,369.00 C840.41,369.00 841.07,370.12 841.41,371.50 C841.76,372.88 842.44,374.00 842.94,374.00 C843.44,374.00 844.36,375.58 845.00,377.50 C845.64,379.42 846.52,381.00 846.97,381.00 C847.42,381.00 848.07,382.12 848.41,383.50 C848.76,384.88 849.48,386.00 850.02,386.00 C850.56,386.00 851.00,386.67 851.00,387.50 C851.00,388.33 851.42,389.00 851.93,389.00 C852.45,389.00 853.18,389.99 853.56,391.20 C853.95,392.42 854.88,394.02 855.63,394.77 C856.38,395.53 857.00,396.79 857.00,397.57 C857.00,398.36 857.42,399.00 857.92,399.00 C858.43,399.00 859.36,400.58 860.00,402.50 C860.64,404.42 861.52,406.00 861.97,406.00 C862.42,406.00 863.07,407.12 863.41,408.50 C863.76,409.88 864.48,411.00 865.02,411.00 C865.56,411.00 866.00,411.67 866.00,412.50 C866.00,413.33 866.42,414.00 866.93,414.00 C867.45,414.00 868.18,414.98 868.55,416.17 C868.93,417.37 870.09,419.25 871.12,420.36 C872.16,421.47 873.00,422.91 873.00,423.55 C873.00,424.07 875.24,427.91 878.33,432.76 C876.00,429.37 874.15,427.00 873.80,427.00 C873.32,427.00 873.42,427.91 874.01,429.02 C874.61,430.13 874.78,431.55 874.39,432.18 C873.99,432.83 874.13,433.03 874.74,432.66 C876.11,431.81 879.29,436.70 878.38,438.28 C878.00,438.95 878.05,439.17 878.49,438.76 C879.60,437.76 884.17,444.11 883.53,445.78 C883.22,446.60 883.47,446.83 884.18,446.39 C884.97,445.90 885.12,446.24 884.67,447.43 C884.30,448.39 884.25,449.59 884.56,450.09 ZM 677.25 578.25 C672.61,578.17 668.69,578.00 665.86,577.79 C666.67,577.61 667.30,577.32 667.50,577.00 C667.87,576.40 666.68,576.00 664.56,576.00 C662.62,576.00 661.03,576.44 661.00,576.98 C661.00,576.98 661.00,576.98 661.00,576.98 C661.00,576.44 662.04,576.00 663.31,576.00 C664.58,576.00 666.49,575.36 667.56,574.58 C669.41,573.23 669.51,571.45 669.78,535.54 L 670.06 499.65 C670.06,499.66 670.07,499.68 670.07,499.69 C670.58,501.03 671.10,509.64 671.22,518.82 L 671.45 535.50 L 671.75 518.25 C671.92,508.30 672.45,501.00 672.99,501.00 C673.51,501.00 673.68,500.33 673.36,499.50 C672.85,498.16 673.98,497.52 676.25,497.88 C676.66,497.95 677.00,497.65 677.00,497.21 C677.00,495.85 681.19,496.04 684.10,497.55 C687.40,499.26 694.13,499.47 695.69,497.91 C696.48,497.12 697.35,497.12 698.83,497.91 C701.31,499.24 704.33,499.35 703.55,498.08 C703.24,497.58 704.45,496.83 706.24,496.43 C711.89,495.16 714.00,495.14 714.03,496.34 C714.05,496.98 714.54,496.68 715.12,495.67 C715.29,495.38 715.44,495.10 715.56,494.84 L 715.29 498.50 C714.93,503.24 714.48,506.50 713.97,508.22 C713.99,507.74 714.00,507.15 714.00,506.44 C714.00,504.32 713.60,503.13 713.00,503.50 C711.88,504.19 711.64,508.31 712.67,509.33 C712.79,509.46 712.90,509.56 713.00,509.65 C712.52,509.53 712.00,508.30 711.48,505.90 C710.51,501.48 706.26,500.00 694.53,500.00 C687.61,500.00 684.98,500.34 684.92,501.25 C684.47,508.52 685.38,528.75 686.20,529.74 C687.39,531.17 697.65,531.50 698.17,530.12 C698.35,529.63 701.76,529.05 705.75,528.83 L 713.00 528.43 L 713.00 533.59 C713.00,536.43 712.72,540.16 712.38,541.88 C712.22,542.66 712.01,543.30 711.78,543.80 C711.92,543.26 712.00,542.58 712.00,541.83 C712.00,538.19 711.56,538.32 710.62,542.25 C710.27,543.71 710.35,544.76 710.80,544.96 C710.35,545.08 710.00,544.52 710.00,543.13 C710.00,542.11 709.07,540.08 707.93,538.63 C705.94,536.11 705.46,536.00 695.95,536.00 C686.06,536.00 686.04,536.01 685.37,538.65 C684.64,541.57 685.61,565.16 686.60,568.74 C686.95,569.97 687.63,570.73 688.11,570.43 C688.60,570.13 689.00,570.39 689.00,571.00 C689.00,571.61 689.45,571.84 690.00,571.50 C690.55,571.16 691.00,571.25 691.00,571.69 C691.00,572.14 694.83,572.50 699.50,572.50 C704.18,572.50 708.00,572.20 708.00,571.83 C708.00,571.46 709.32,570.87 710.93,570.52 C713.91,569.86 717.00,566.31 717.00,563.54 C717.00,562.69 717.45,562.00 718.00,562.00 C719.25,562.00 719.25,563.90 718.02,571.43 C717.48,574.69 716.47,577.72 715.77,578.16 C715.07,578.61 709.78,578.88 704.00,578.76 C698.22,578.65 686.19,578.42 677.25,578.25 ZM 683.09 439.19 C677.55,433.25 671.78,426.77 670.26,424.80 C669.59,423.93 668.28,422.32 666.66,420.35 C668.16,422.06 669.68,423.76 671.20,425.45 L 675.64 430.35 L 675.20 426.61 C674.87,423.72 675.25,422.42 676.88,420.89 C678.05,419.81 679.00,418.25 679.00,417.42 C679.00,416.60 679.90,414.16 681.00,412.00 C682.10,409.84 683.01,407.05 683.02,405.79 C683.05,403.83 683.70,404.25 687.61,408.75 C690.13,411.64 692.69,414.00 693.31,414.00 C693.92,414.00 696.53,411.93 699.10,409.40 L 703.76 404.81 L 706.49 410.65 C707.99,413.87 709.86,417.90 710.65,419.60 C712.28,423.12 711.99,428.99 710.05,431.69 C709.33,432.68 711.53,430.65 714.93,427.17 C723.00,418.90 736.60,402.48 746.58,389.34 C742.48,394.86 738.11,400.41 733.48,406.00 C717.78,424.94 695.25,450.00 693.92,450.00 C693.50,450.00 688.63,445.14 683.09,439.19 ZM 1329.93 720.75 C1326.55,712.40 1317.92,704.16 1310.75,702.44 C1306.84,701.51 1307.32,700.53 1312.72,698.47 C1319.31,695.95 1326.38,689.04 1329.12,682.42 C1330.36,679.44 1331.69,677.00 1332.08,677.00 C1332.46,677.00 1333.09,678.24 1333.46,679.75 C1335.26,687.03 1345.32,697.32 1352.75,699.48 C1356.14,700.47 1355.49,701.54 1350.29,703.53 C1344.24,705.84 1336.84,713.24 1334.53,719.29 C1333.54,721.88 1332.39,724.00 1331.99,724.00 C1331.58,724.00 1330.65,722.54 1329.93,720.75 ZM 691.50 656.00 C692.14,654.96 688.23,642.26 687.05,641.53 C686.68,641.30 682.97,640.81 678.81,640.43 L 671.24 639.75 L 669.09 645.62 C666.00,654.11 664.88,656.00 662.94,656.00 C661.72,656.00 661.25,655.26 661.36,653.50 C661.44,652.13 661.91,651.00 662.42,651.00 C662.92,651.00 663.07,650.74 662.75,650.41 C661.91,649.58 664.01,644.00 665.16,644.00 C665.69,644.00 665.84,643.55 665.50,643.00 C665.16,642.45 665.36,642.00 665.94,642.00 C666.52,642.00 666.95,641.66 666.88,641.25 C666.54,639.09 667.17,636.98 668.56,635.58 C669.42,634.72 669.85,633.56 669.50,633.01 C669.16,632.45 669.39,632.00 670.00,632.00 C670.61,632.00 670.84,631.55 670.50,631.00 C670.16,630.45 670.34,630.00 670.91,630.00 C671.47,630.00 671.68,629.33 671.36,628.50 C671.05,627.67 671.31,627.00 671.95,627.00 C672.59,627.00 672.84,626.55 672.50,626.00 C672.16,625.45 672.34,625.00 672.91,625.00 C673.47,625.00 673.68,624.33 673.36,623.50 C673.05,622.67 673.31,622.00 673.95,622.00 C674.59,622.00 674.84,621.55 674.50,621.00 C674.16,620.45 674.41,620.00 675.05,620.00 C675.69,620.00 675.95,619.33 675.64,618.50 C675.32,617.67 675.53,617.00 676.09,617.00 C676.66,617.00 676.84,616.55 676.50,616.00 C676.16,615.45 676.39,615.00 677.00,615.00 C677.61,615.00 677.86,614.58 677.55,614.07 C676.93,613.08 677.91,610.61 679.09,609.21 C678.92,609.65 678.74,610.24 678.52,611.00 C677.85,613.30 677.91,613.35 679.19,611.68 C680.51,609.94 680.65,609.98 681.96,612.42 C683.44,615.18 683.89,615.37 683.49,612.88 C685.23,616.48 687.59,621.87 690.07,628.00 C698.67,649.26 700.42,653.21 703.19,654.95 C701.76,654.10 700.27,652.86 699.54,651.85 L 697.81 649.50 L 698.50 651.82 C699.05,653.69 698.73,654.26 696.89,654.74 C694.74,655.30 694.72,655.38 696.55,656.10 C697.62,656.52 700.53,656.87 703.00,656.89 L 703.95 656.90 C702.85,656.94 701.29,656.95 699.19,656.96 C693.89,656.99 691.11,656.64 691.50,656.00 ZM 611.67 299.39 C614.19,301.56 619.00,302.73 619.00,301.17 C619.00,300.91 618.78,299.93 618.43,298.60 C620.76,306.21 622.75,310.80 626.23,317.78 L 628.24 321.80 L 626.45 324.18 C624.72,326.47 624.40,326.55 621.80,325.25 C619.92,324.31 619.00,323.08 619.00,321.50 C619.00,319.51 618.49,319.14 615.75,319.11 C613.96,319.09 610.36,318.79 607.75,318.44 C604.32,317.98 603.00,318.14 603.00,319.03 C603.00,319.36 603.12,319.94 603.36,320.72 C600.10,311.72 598.57,305.19 597.93,296.71 C598.30,298.49 598.66,298.48 599.40,297.46 C601.05,295.21 608.09,296.31 611.67,299.39 ZM 753.02 578.26 C749.84,578.19 746.81,578.06 744.30,577.89 C745.46,577.71 745.67,577.29 745.34,576.44 C745.01,575.59 744.09,575.14 743.29,575.44 C743.19,575.48 743.08,575.52 742.96,575.55 C745.97,573.98 746.00,566.93 746.00,535.35 C746.00,505.71 745.82,499.64 744.67,497.87 C746.77,500.70 747.04,508.75 747.22,534.40 C747.43,565.13 747.44,565.26 748.00,545.00 C748.31,533.72 748.67,525.17 748.80,526.00 C748.99,527.22 749.19,527.25 749.88,526.15 C751.54,523.54 751.97,529.52 751.40,547.22 L 750.83 564.74 L 753.82 566.87 C755.46,568.04 757.33,569.00 757.96,569.00 C758.60,569.00 758.84,569.45 758.50,570.00 C758.16,570.55 758.39,571.00 759.00,571.00 C759.61,571.00 759.84,571.45 759.50,572.00 C759.16,572.55 759.60,573.00 760.48,573.00 C761.79,573.00 761.70,573.40 759.97,575.25 L 757.86 577.50 L 762.68 578.11 C764.02,578.27 766.77,578.41 770.12,578.51 C764.16,578.46 757.77,578.37 753.02,578.26 ZM 631.50 577.00 C631.78,577.45 633.21,577.75 634.98,577.89 C632.33,577.96 629.00,578.00 625.00,578.00 C621.04,578.00 617.51,577.94 614.65,577.85 C616.06,577.67 617.00,577.36 617.00,577.00 C617.00,576.45 616.52,576.00 615.94,576.00 C615.36,576.00 615.19,575.51 615.56,574.90 C616.06,574.10 615.68,574.10 614.19,574.90 C613.06,575.51 610.98,576.00 609.57,576.00 C609.32,576.00 609.08,576.01 608.85,576.04 C609.27,575.94 609.75,575.86 610.25,575.81 C614.70,575.38 616.27,572.89 616.76,561.95 C616.78,567.53 616.96,571.10 617.23,570.66 C617.64,570.02 618.04,567.47 618.12,565.00 L 618.26 560.50 L 619.74 567.50 L 619.87 563.69 C619.96,561.18 620.38,560.12 621.11,560.57 C622.77,561.60 623.97,559.02 623.98,554.37 C624.00,549.81 626.25,546.85 628.20,548.80 C628.82,549.42 629.51,554.10 629.75,559.21 C629.99,564.32 630.37,568.69 630.59,568.92 C630.82,569.15 631.08,555.42 631.17,538.42 C631.19,535.81 631.20,533.24 631.22,530.77 C631.30,549.85 631.89,571.07 632.79,572.68 C633.58,574.11 635.01,575.18 636.75,575.74 C636.20,575.58 635.71,575.39 635.32,575.18 C632.65,573.74 631.68,573.67 632.50,575.00 C632.84,575.55 632.61,576.00 632.00,576.00 C631.39,576.00 631.16,576.45 631.50,577.00 ZM 757.72 373.50 C760.15,369.35 762.55,364.14 761.47,365.20 C760.63,366.03 758.66,364.22 757.73,361.75 C757.22,360.40 755.90,360.00 752.03,360.00 C748.33,360.00 746.47,359.47 745.00,358.00 C743.90,356.90 743.00,355.65 743.00,355.22 C743.00,354.30 749.98,343.00 750.55,343.00 C750.76,343.00 750.65,343.75 750.30,344.66 C749.87,345.77 750.05,346.09 750.82,345.61 C751.45,345.22 752.96,345.82 754.18,346.95 C756.56,349.17 760.04,349.59 762.99,348.01 C764.48,347.21 765.23,347.54 766.81,349.72 C768.55,352.10 768.98,352.26 770.47,351.02 C771.07,350.53 771.75,349.67 772.53,348.43 C768.29,356.61 763.35,364.98 757.72,373.50 ZM 723.02 612.25 C723.03,613.11 723.26,613.16 723.77,612.40 C724.17,611.79 725.85,610.82 727.50,610.23 C728.12,610.01 728.52,609.83 728.66,609.69 C728.61,609.81 728.34,609.95 727.88,610.12 C725.36,611.04 725.24,611.44 724.57,621.49 C724.37,624.53 724.28,628.37 724.30,632.36 L 723.69 614.07 L 721.37 618.78 C719.68,622.25 719.05,622.90 719.03,621.25 C719.01,620.01 718.55,619.00 718.00,619.00 C717.45,619.00 717.01,621.14 717.03,623.75 C717.06,628.10 717.19,628.34 718.50,626.60 C719.69,625.03 720.20,624.92 721.47,625.97 C723.59,627.74 723.63,640.24 721.51,641.99 C720.69,642.67 719.34,642.96 718.51,642.64 C717.30,642.18 717.00,642.95 717.00,646.47 C717.00,650.00 716.50,652.61 715.51,654.26 L 715.77 633.18 L 716.04 610.95 L 714.43 610.30 C715.72,610.64 717.64,610.90 719.25,610.93 C721.54,610.97 723.01,611.49 723.02,612.25 ZM 800.02 387.21 C794.79,382.22 790.42,378.36 789.54,378.04 C788.24,377.55 786.93,377.92 785.61,379.15 C783.00,381.58 782.67,381.53 778.56,377.92 C776.64,376.23 774.60,375.13 774.03,375.48 C772.70,376.30 772.72,375.39 774.08,372.85 C774.68,371.74 774.96,370.63 774.71,370.38 C774.26,369.92 768.82,378.01 767.70,380.61 C767.99,379.74 769.19,377.66 770.83,375.25 C772.98,372.09 774.90,369.05 775.09,368.50 C775.29,367.95 776.09,366.76 776.86,365.85 C778.15,364.34 778.77,364.66 783.64,369.42 C786.59,372.30 789.00,375.05 789.00,375.53 C789.00,376.18 794.11,381.45 800.02,387.21 ZM 717.56 149.04 C717.47,149.02 717.35,149.02 717.22,149.02 C716.51,149.01 715.66,149.72 715.32,150.60 C714.60,152.50 709.73,151.87 707.44,149.58 C705.79,147.94 705.51,146.58 707.00,147.50 C707.55,147.84 708.00,147.42 708.00,146.56 C708.00,145.70 707.58,145.00 707.07,145.00 C705.65,145.00 704.71,141.07 705.79,139.70 C706.32,139.04 706.44,137.63 706.05,136.57 C704.98,133.62 705.95,130.04 707.64,130.69 C708.28,130.94 708.39,130.45 707.94,129.06 C709.33,132.20 712.94,139.67 717.56,149.04 ZM 685.00 636.25 C685.00,635.83 683.88,632.39 682.50,628.60 C681.12,624.81 680.00,621.55 680.00,621.35 C680.00,621.16 679.61,621.00 679.13,621.00 C678.36,621.00 672.98,634.37 673.00,636.25 C673.00,636.66 675.70,637.00 679.00,637.00 C682.30,637.00 685.00,636.66 685.00,636.25 ZM 588.79 313.42 C588.29,312.57 587.09,313.15 586.53,314.91 C585.96,316.71 583.18,318.51 582.31,317.65 C581.33,316.67 581.00,311.88 581.95,312.47 C582.53,312.83 582.75,312.50 582.44,311.72 C582.15,310.95 582.82,309.24 583.92,307.91 L 585.93 305.50 L 585.97 307.75 C585.99,308.99 586.50,310.00 587.12,310.00 C587.65,310.00 587.89,309.43 587.78,308.52 C587.81,308.66 587.83,308.80 587.85,308.94 C588.05,310.16 588.38,311.71 588.79,313.42 ZM 563.00 634.02 C545.67,633.73 532.17,633.19 533.00,632.81 C533.83,632.44 554.75,631.88 579.50,631.58 C598.41,631.35 615.93,630.98 624.32,630.66 C617.34,630.96 603.72,631.31 589.50,631.52 C545.98,632.16 536.99,633.32 570.00,634.03 C580.21,634.25 594.13,634.49 604.99,634.65 C593.04,634.49 576.32,634.24 563.00,634.02 ZM 767.63 630.84 C776.97,631.00 791.41,631.24 807.00,631.48 C832.58,631.88 853.93,632.61 854.45,633.11 C855.01,633.63 848.01,634.00 837.36,634.00 C827.44,634.00 804.36,634.30 786.07,634.66 C804.36,634.30 824.54,633.97 830.91,633.94 C838.19,633.90 841.73,633.56 840.43,633.04 C839.29,632.57 820.84,631.86 799.43,631.46 C787.12,631.22 775.58,631.00 767.63,630.84 ZM 658.43 328.66 C656.94,331.05 655.52,331.33 654.04,329.55 C651.51,326.50 654.54,323.78 658.00,325.99 C659.14,326.71 659.24,327.36 658.43,328.66 ZM 722.72 335.70 C719.38,339.23 715.82,342.92 711.98,346.80 C712.64,345.75 712.57,345.18 712.14,344.67 C711.41,343.79 710.35,343.16 709.78,343.28 C709.21,343.40 708.54,342.94 708.29,342.25 C707.64,340.46 711.06,340.70 712.40,342.53 C713.36,343.85 714.36,343.33 719.26,338.96 C720.34,337.99 721.50,336.90 722.72,335.70 ZM 651.00 325.47 C651.00,327.43 647.62,327.46 646.01,325.51 C645.01,324.31 645.08,323.91 646.39,323.40 C648.61,322.55 651.00,323.62 651.00,325.47 ZM 794.00 386.89 C794.00,388.10 791.73,388.40 790.67,387.33 C789.54,386.20 789.93,384.84 791.17,385.61 C791.94,386.08 792.14,385.80 791.75,384.78 C791.21,383.39 791.46,383.38 794.08,384.69 C797.12,386.21 798.11,387.36 795.50,386.36 C794.67,386.05 794.00,386.28 794.00,386.89 ZM 715.65 493.66 C714.03,493.60 702.60,493.75 689.00,494.02 C665.43,494.48 662.87,494.69 665.82,495.89 C666.30,496.09 666.78,496.35 667.25,496.65 L 666.28 496.21 L 662.50 494.50 L 667.00 494.27 C669.47,494.15 681.44,493.92 693.58,493.77 L 715.66 493.50 ZM 729.01 172.07 C722.15,158.50 717.88,150.99 717.01,150.98 C715.67,150.97 715.67,150.86 717.00,150.00 C717.37,149.76 717.62,149.57 717.74,149.42 C721.13,156.29 725.04,164.15 729.01,172.07 ZM 682.00 639.00 C680.78,639.79 680.91,639.97 682.69,639.98 C683.90,639.99 685.16,639.55 685.50,639.00 C686.29,637.73 683.97,637.73 682.00,639.00 ZM 598.08 270.09 C599.06,260.32 601.56,253.20 606.93,242.73 C607.12,242.35 607.31,241.99 607.49,241.64 C604.55,247.60 601.30,255.38 599.99,260.16 C599.22,263.01 598.57,266.44 598.08,270.09 ZM 739.86 316.55 C747.47,307.26 755.06,297.04 760.63,288.34 C754.46,297.97 747.92,306.92 739.86,316.55 ZM 611.28 258.64 C610.95,248.69 611.21,243.72 612.27,239.21 C611.40,242.93 611.10,250.68 611.28,258.64 ZM 817.61 403.00 C818.41,403.00 819.31,403.67 819.63,404.49 C819.31,403.67 818.40,403.00 817.60,403.00 C816.79,403.00 810.59,397.55 803.82,390.89 C803.57,390.64 803.32,390.39 803.07,390.15 C809.92,396.71 816.85,403.00 817.61,403.00 ZM 679.19 378.50 C674.76,382.35 671.11,385.73 671.07,386.00 C671.11,385.73 674.59,382.45 678.82,378.72 C680.87,376.91 684.18,373.89 687.89,370.46 C684.13,374.03 681.02,376.92 679.19,378.50 ZM 656.39 292.22 C652.16,299.54 648.00,306.48 644.18,312.50 C637.60,322.87 636.97,323.93 636.98,324.49 C636.98,324.59 636.85,324.84 636.62,325.18 C636.66,325.10 636.67,325.04 636.66,325.00 C636.60,324.73 637.27,323.38 638.15,322.00 C645.89,309.85 649.42,304.10 656.39,292.22 ZM 747.73 343.83 C749.24,340.98 751.05,337.51 752.83,334.00 C762.55,314.94 767.46,299.26 768.50,284.00 C767.45,299.44 762.57,314.90 752.40,335.00 C750.96,337.85 749.34,340.90 747.73,343.83 ZM 648.48 398.34 C639.68,387.08 631.75,375.71 624.91,364.57 C631.69,375.54 639.67,386.97 648.48,398.34 ZM 735.60 362.74 C738.35,358.97 740.80,355.44 743.01,352.07 C741.95,353.84 741.01,355.32 740.29,356.35 C739.11,358.04 737.51,360.22 735.60,362.74 ZM 616.97 545.57 L 617.00 534.96 L 617.16 534.96 ZM 674.55 259.15 C681.01,246.64 686.76,234.73 689.57,227.76 C686.50,235.38 681.03,246.71 674.55,259.15 ZM 791.59 273.05 C791.40,263.91 790.35,254.65 788.45,245.27 C790.44,255.06 791.47,263.91 791.59,273.05 ZM 589.00 314.31 C589.84,317.77 590.96,321.73 592.00,324.85 C590.35,319.90 589.00,315.23 589.00,314.44 C589.00,314.40 589.00,314.35 589.00,314.31 ZM 749.22 211.71 C745.15,204.04 737.64,189.34 731.38,176.78 C738.24,190.43 745.00,203.69 749.22,211.71 ZM 784.36 320.90 C786.55,314.25 788.24,307.55 789.44,300.80 C788.38,307.25 786.68,313.96 784.36,320.90 ZM 738.51 495.02 L 738.50 495.00 C738.10,494.35 742.66,494.00 751.44,494.00 C743.41,494.00 738.92,494.38 738.51,495.02 ZM 633.26 497.94 C632.83,498.54 632.45,499.31 632.08,500.28 C631.96,500.60 631.85,501.31 631.76,502.34 C631.81,501.74 631.85,501.20 631.88,500.82 C631.95,499.75 632.47,498.75 633.26,497.94 ZM 715.10 656.62 C716.67,656.68 718.88,656.71 721.50,656.70 C725.25,656.70 728.03,656.62 729.19,656.51 C728.08,656.63 725.29,656.72 721.50,656.74 C718.86,656.75 716.64,656.71 715.10,656.62 ZM 726.24 655.12 C725.91,654.87 725.68,654.60 725.58,654.34 C725.49,654.10 725.38,653.21 725.26,651.82 C725.36,652.54 725.46,653.17 725.56,653.69 C725.68,654.28 725.90,654.75 726.24,655.12 ZM 613.32 343.87 C611.27,339.78 609.40,335.76 607.72,331.82 C609.40,335.66 611.36,339.89 613.32,343.87 ZM 639.51 576.18 C639.92,576.18 640.33,576.16 640.75,576.11 C641.99,575.97 643.00,576.34 643.00,576.93 C643.00,576.94 643.00,576.94 643.00,576.95 C642.95,576.41 641.73,576.06 640.25,576.17 C640.02,576.18 639.77,576.19 639.51,576.18 ZM 632.50 329.93 L 634.57 327.78 L 632.58 330.07 ZM 585.98 302.08 C585.25,302.32 584.24,303.59 583.25,305.72 C584.20,303.67 585.36,302.00 585.84,302.00 C585.88,302.00 585.93,302.03 585.98,302.08 ZM 765.51 383.57 C765.25,384.31 766.01,385.52 768.18,388.16 C765.85,385.33 765.12,384.36 765.51,383.57 ZM 713.30 609.60 C713.62,609.27 716.08,609.13 721.00,609.14 C722.04,609.14 722.96,609.15 723.77,609.16 C722.96,609.15 722.04,609.15 721.00,609.15 C716.50,609.15 713.88,609.30 713.30,609.60 ZM 616.20 290.86 C615.36,287.92 614.67,285.35 614.10,282.99 C614.87,285.92 615.56,288.52 616.20,290.86 ZM 713.00 656.11 L 714.03 655.82 C713.66,656.05 713.25,656.20 712.80,656.29 C712.78,656.29 712.76,656.30 712.74,656.30 C712.68,656.24 712.76,656.17 713.00,656.11 ZM 703.70 119.19 C702.54,116.56 701.23,113.60 700.02,110.87 C701.10,113.25 702.32,116.01 703.70,119.19 ZM 795.24 338.20 L 792.93 334.21 L 792.95 334.14 ZM 738.64 576.04 C737.85,576.15 737.38,576.43 737.42,576.79 C737.19,576.39 737.60,576.14 738.64,576.04 ZM 631.42 630.11 C633.92,629.85 634.00,630.28 634.00,632.36 C634.00,630.37 633.93,629.91 631.42,630.11 ZM 704.00 401.81 C704.90,400.77 705.78,399.74 706.64,398.73 C705.74,399.80 704.85,400.83 704.00,401.82 C699.22,407.37 695.00,412.02 694.03,412.81 C695.00,412.02 699.22,407.36 704.00,401.81 ZM 695.73 101.99 C694.73,100.22 693.96,99.18 693.67,99.28 C694.00,99.17 694.66,100.03 695.73,101.99 ZM 587.68 307.95 C587.67,307.88 587.65,307.82 587.63,307.75 C587.46,307.12 587.31,306.34 587.19,305.60 C587.36,306.32 587.53,307.11 587.68,307.95 ZM 638.01 496.00 C639.59,496.00 641.16,495.55 641.50,495.00 C641.16,495.55 639.67,496.01 638.19,496.02 C637.83,496.02 637.50,496.03 637.18,496.05 C637.46,496.02 637.73,496.00 638.01,496.00 ZM 631.66 503.54 C631.59,504.59 631.53,505.86 631.47,507.30 C631.50,506.07 631.52,505.27 631.55,505.00 C631.58,504.55 631.62,504.05 631.66,503.54 ZM 767.01 382.18 C766.75,382.46 766.43,382.74 766.07,382.96 C766.01,382.99 765.95,383.03 765.91,383.07 C766.09,382.89 766.32,382.71 766.60,382.50 C766.75,382.39 766.88,382.28 767.01,382.18 ZM 756.99 226.05 L 756.98 226.07 L 754.61 221.70 ZM 839.97 418.00 L 839.94 418.00 C838.88,418.00 838.00,417.52 838.00,416.94 C838.00,417.52 838.88,417.99 839.97,418.00 ZM 744.37 497.51 C744.14,497.29 743.86,497.08 743.56,496.89 C743.85,497.05 744.12,497.25 744.37,497.51 ZM 704.81 655.75 L 704.38 655.56 C704.25,655.51 704.11,655.44 703.97,655.37 C704.14,655.45 704.31,655.53 704.49,655.61 C704.60,655.66 704.71,655.71 704.81,655.75 ZM 607.05 577.14 C607.02,577.11 607.00,577.09 607.00,577.06 C607.00,577.05 607.00,577.04 607.00,577.03 C607.01,577.07 607.02,577.10 607.05,577.14 Z" fill="rgb(154,131,85)"/>
<path d="M 729.01 172.07 C729.80,173.64 730.59,175.21 731.38,176.78 C737.64,189.34 745.15,204.04 749.22,211.71 C750.17,213.52 750.99,215.06 751.65,216.28 L 754.61 221.70 L 754.62 221.70 L 754.86 222.15 L 751.40 215.81 C748.32,210.18 743.77,201.50 741.28,196.54 C738.79,191.57 736.47,187.27 736.12,187.00 C735.78,186.73 735.36,185.85 735.19,185.06 C734.79,183.22 720.04,155.24 720.02,156.27 C720.01,156.70 721.87,160.75 724.15,165.27 C731.06,179.00 741.99,203.34 741.47,203.86 C741.20,204.13 741.99,205.42 743.22,206.73 C744.49,208.09 744.82,208.87 743.98,208.54 C742.93,208.14 741.83,209.50 740.19,213.24 C738.93,216.13 737.21,219.74 736.39,221.25 C735.56,222.77 735.11,224.37 735.39,224.82 C735.67,225.27 735.01,227.10 733.93,228.88 L 731.97 232.09 C721.02,211.18 705.01,179.03 697.52,162.25 C695.98,158.81 694.40,156.00 694.01,156.00 C693.61,156.00 690.26,162.64 686.55,170.75 C682.64,179.30 676.89,191.09 670.44,203.89 C681.73,181.41 683.93,175.69 680.94,177.54 C680.44,177.85 680.28,177.42 680.60,176.59 C681.00,175.56 680.37,174.88 678.59,174.43 C676.69,173.96 675.95,173.08 675.82,171.14 C675.73,169.69 675.48,166.48 675.27,164.00 C674.67,156.85 674.67,156.59 675.46,154.75 C675.99,153.51 675.76,153.00 674.67,153.00 C672.04,153.00 671.71,150.99 674.00,149.00 C675.65,147.57 676.04,146.42 675.59,144.30 C675.14,142.17 676.66,137.82 681.98,126.06 C685.82,117.57 688.83,110.49 688.67,110.34 C688.51,110.18 684.62,118.03 680.01,127.78 C675.92,136.44 669.59,149.51 662.71,163.56 C669.45,149.63 675.71,136.45 680.47,126.07 C687.14,111.53 693.08,99.47 693.67,99.28 C693.96,99.18 694.73,100.22 695.73,101.99 C696.77,103.88 698.18,106.81 700.02,110.87 C701.23,113.60 702.54,116.56 703.70,119.19 L 703.70 119.19 C704.91,121.97 706.24,125.07 707.70,128.50 C707.77,128.67 707.85,128.85 707.94,129.06 C708.39,130.45 708.28,130.94 707.64,130.69 C705.95,130.04 704.98,133.62 706.05,136.57 C706.44,137.63 706.32,139.04 705.79,139.70 C704.71,141.07 705.65,145.00 707.07,145.00 C707.58,145.00 708.00,145.70 708.00,146.56 C708.00,147.42 707.55,147.84 707.00,147.50 C705.51,146.58 705.79,147.94 707.44,149.58 C709.73,151.87 714.60,152.50 715.32,150.60 C715.66,149.72 716.51,149.01 717.22,149.02 C717.35,149.02 717.47,149.02 717.56,149.04 L 717.74 149.42 C717.62,149.57 717.37,149.76 717.00,150.00 C715.67,150.86 715.67,150.97 717.01,150.98 C717.88,150.99 722.15,158.49 729.01,172.07 ZM 864.50 449.39 C842.51,445.47 819.39,434.29 798.00,417.23 C791.36,411.94 773.11,394.15 768.23,388.22 L 768.18 388.16 C766.01,385.52 765.25,384.31 765.51,383.57 C765.59,383.40 765.72,383.24 765.91,383.07 C765.95,383.03 766.01,382.99 766.07,382.96 C766.43,382.74 766.75,382.46 767.01,382.18 C767.77,381.54 768.09,381.05 767.71,381.03 C767.61,381.03 767.61,380.88 767.70,380.61 C768.82,378.01 774.26,369.92 774.71,370.38 C774.96,370.63 774.68,371.74 774.08,372.85 C772.72,375.39 772.70,376.30 774.03,375.48 C774.60,375.13 776.64,376.23 778.56,377.92 C782.67,381.53 783.00,381.58 785.61,379.15 C786.93,377.92 788.24,377.55 789.54,378.04 C790.42,378.36 794.79,382.22 800.02,387.21 C801.02,388.18 802.04,389.17 803.07,390.15 C803.32,390.39 803.57,390.64 803.82,390.89 C810.59,397.55 816.79,403.00 817.60,403.00 C818.40,403.00 819.31,403.67 819.63,404.49 L 819.64 404.49 L 819.64 404.50 C819.95,405.33 820.85,406.00 821.64,406.00 C822.42,406.00 823.32,406.67 823.64,407.50 C823.95,408.33 824.84,409.00 825.61,409.00 C826.37,409.00 827.00,409.45 827.00,410.00 C827.00,410.55 827.67,411.00 828.50,411.00 C829.33,411.00 830.00,411.45 830.00,412.00 C830.00,412.55 830.67,413.00 831.50,413.00 C832.33,413.00 833.00,413.45 833.00,414.00 C833.00,414.55 833.67,415.00 834.50,415.00 C835.33,415.00 836.00,415.48 836.00,416.06 C836.00,416.64 836.45,416.84 837.00,416.50 C837.55,416.16 838.00,416.36 838.00,416.94 C838.00,417.52 838.88,418.00 839.94,418.00 C839.95,418.00 839.96,418.00 839.97,418.00 L 839.97 418.00 L 840.01 418.00 C841.40,418.00 841.46,417.40 839.29,413.80 C838.52,412.37 837.42,410.48 835.94,407.99 C832.68,402.48 830.00,397.68 830.00,397.32 C830.00,396.02 838.74,405.58 840.28,408.57 C841.15,410.26 842.57,412.23 843.43,412.95 C844.30,413.66 845.00,415.07 845.00,416.09 C845.00,417.10 845.87,418.40 846.94,418.97 C848.10,419.59 849.00,421.29 849.19,423.25 C849.42,425.70 849.99,426.51 851.50,426.56 C852.60,426.59 854.45,427.13 855.62,427.77 C856.78,428.41 858.01,428.66 858.34,428.32 C858.68,427.99 859.64,428.29 860.48,428.99 C861.32,429.68 863.46,430.55 865.22,430.91 C867.94,431.47 868.43,432.01 868.46,434.51 C868.49,436.69 869.19,437.79 871.13,438.73 C872.58,439.43 874.57,441.24 875.54,442.75 C876.52,444.26 877.92,445.86 878.66,446.30 C879.40,446.74 880.00,447.98 880.00,449.05 C880.00,450.02 879.41,450.61 877.92,450.82 C873.56,450.62 868.65,450.13 864.50,449.39 ZM 378.04 578.17 C377.07,577.86 376.78,577.40 377.00,576.98 C377.00,576.99 377.00,577.01 377.00,577.02 C377.00,577.62 378.12,577.77 379.75,577.38 C383.68,576.44 383.81,576.00 380.17,576.00 C379.53,576.00 378.93,576.06 378.44,576.17 C378.87,576.06 379.39,576.00 379.98,576.00 C382.11,576.00 383.46,575.23 384.73,573.30 C386.32,570.87 386.53,567.16 386.83,537.55 C387.16,503.99 386.66,497.85 383.49,496.63 C382.67,496.32 382.00,495.62 382.00,495.08 C382.00,494.46 390.18,494.07 403.89,494.04 C415.90,494.02 427.13,493.72 428.87,493.38 C427.16,493.72 420.29,494.06 413.62,494.14 C406.96,494.21 402.51,494.47 403.74,494.70 C404.97,494.94 406.63,496.06 407.42,497.19 C408.56,498.82 410.45,499.41 416.46,500.00 C419.07,500.25 421.13,500.58 422.75,501.05 C420.52,500.53 417.41,500.30 412.98,500.16 L 402.17 499.83 L 401.55 505.16 C401.21,508.10 401.29,514.78 401.72,520.00 L 402.50 529.50 L 412.83 529.79 C414.62,529.84 416.18,529.86 417.55,529.85 C416.34,529.93 415.03,530.01 413.60,530.07 L 401.50 530.65 L 413.47 530.82 L 425.44 531.00 L 423.29 533.16 L 421.13 535.32 L 423.72 537.73 C420.80,535.96 415.55,535.45 406.75,535.81 L 402.00 536.00 L 402.00 567.20 L 404.84 569.85 C407.79,572.59 408.02,572.62 422.17,572.13 C426.71,571.97 431.60,568.11 432.51,563.97 C432.53,563.85 432.56,563.73 432.59,563.62 C432.55,563.79 432.51,563.96 432.47,564.15 C432.09,565.89 430.59,568.43 429.14,569.82 C426.44,572.39 428.10,571.90 431.25,569.19 C432.82,567.85 433.00,567.86 433.00,569.35 C433.00,570.26 433.41,571.00 433.90,571.00 C434.10,571.00 434.28,570.66 434.43,570.08 C434.09,573.56 433.50,576.90 432.85,577.68 C431.93,578.79 426.67,579.00 405.40,578.77 C390.92,578.62 378.61,578.35 378.04,578.17 ZM 656.39 292.22 C656.81,291.51 657.25,290.77 657.69,290.00 C658.28,289.01 658.87,287.98 659.47,286.93 C654.40,295.96 649.53,304.23 645.54,310.50 C643.79,313.25 641.34,317.19 640.09,319.25 C636.03,326.00 638.63,323.18 643.97,315.04 C646.85,310.66 649.92,306.50 650.79,305.79 C652.13,304.70 652.25,304.74 651.55,306.00 C650.86,307.22 650.96,307.27 652.05,306.25 C653.91,304.52 654.61,304.66 657.01,307.25 C658.16,308.49 660.53,309.99 662.27,310.58 C664.02,311.17 665.68,312.52 665.97,313.58 C666.67,316.12 668.82,316.48 671.08,314.43 C671.79,313.78 672.90,312.30 674.35,310.06 C668.97,319.07 662.91,328.78 656.68,338.30 C651.52,346.18 647.27,352.92 647.01,353.62 C647.00,353.59 647.00,353.57 647.00,353.55 C647.00,353.17 648.36,350.89 650.02,348.47 C653.02,344.11 653.03,344.08 650.92,342.96 C649.18,342.03 648.42,342.20 646.56,343.94 C645.11,345.31 642.39,346.27 638.90,346.67 C635.93,347.00 632.98,347.68 632.35,348.18 C631.71,348.68 630.12,348.82 628.81,348.49 C627.50,348.16 625.21,348.35 623.72,348.92 C620.19,350.26 618.45,349.50 617.00,346.00 C615.93,343.42 612.97,341.03 613.02,342.78 C613.03,343.05 613.30,343.74 613.77,344.75 C613.62,344.46 613.47,344.16 613.32,343.87 C611.36,339.89 609.40,335.66 607.72,331.82 C607.02,330.20 606.36,328.59 605.74,327.00 C604.85,324.76 604.06,322.68 603.36,320.72 C603.12,319.94 603.00,319.36 603.00,319.03 C603.00,318.14 604.32,317.98 607.75,318.44 C610.36,318.79 613.96,319.09 615.75,319.11 C618.49,319.14 619.00,319.51 619.00,321.50 C619.00,323.08 619.92,324.31 621.80,325.25 C624.40,326.55 624.72,326.47 626.45,324.18 L 628.24 321.80 L 632.37 330.07 L 632.50 329.93 L 632.58 330.07 L 634.57 327.78 C635.60,326.71 636.43,325.64 636.62,325.18 C636.85,324.84 636.98,324.59 636.98,324.49 C636.97,323.93 637.60,322.87 644.18,312.50 C648.00,306.48 652.16,299.54 656.39,292.22 ZM 616.97 545.57 L 617.16 534.96 L 617.00 534.96 L 617.00 534.96 L 594.75 535.23 L 572.50 535.50 L 572.63 553.95 C572.76,571.74 572.84,572.45 574.99,574.20 C575.85,574.89 577.35,575.50 578.79,575.80 C577.58,575.61 576.31,575.31 575.42,574.97 C572.90,574.01 572.80,574.07 574.10,575.72 C574.87,576.70 575.95,577.83 576.50,578.23 C576.52,578.25 576.54,578.27 576.57,578.28 C569.69,578.35 559.96,578.35 553.92,578.27 C554.96,577.77 555.82,577.05 556.12,576.23 C556.86,574.21 556.74,574.07 555.04,574.98 C554.53,575.25 553.79,575.50 553.00,575.69 C554.07,575.30 554.91,574.54 555.73,573.30 C557.32,570.87 557.53,567.17 557.80,537.07 C557.97,518.71 557.85,502.69 557.55,501.36 C557.56,501.38 557.56,501.40 557.57,501.42 C557.88,502.68 558.00,519.27 557.82,538.30 C557.63,558.39 557.86,571.97 558.36,570.70 C558.84,569.49 559.15,566.08 559.06,563.13 L 558.89 557.76 L 562.52 558.44 C565.68,559.03 566.23,558.84 566.71,557.01 C567.04,555.76 567.92,555.03 568.88,555.21 C570.14,555.45 570.63,557.19 571.07,563.01 C571.92,574.22 572.25,570.48 572.10,551.25 L 571.97 534.00 L 592.24 533.84 C604.77,533.74 610.40,533.42 607.00,533.00 C603.97,532.63 602.09,532.25 602.81,532.16 C603.53,532.07 603.84,531.55 603.50,531.00 C603.12,530.38 605.46,529.92 609.69,529.78 C613.44,529.66 606.60,529.32 594.50,529.03 L 572.50 528.50 L 594.75 528.77 L 617.00 529.04 L 617.11 525.77 C617.17,523.97 617.14,517.55 617.03,511.50 C616.90,503.80 616.48,499.79 615.07,497.79 C615.36,498.05 615.55,497.85 615.77,497.19 C615.99,496.53 616.58,496.24 617.09,496.55 C617.59,496.86 618.00,496.58 618.00,495.92 C618.00,495.03 620.87,494.90 629.42,495.39 C636.67,495.81 640.84,495.70 641.44,495.08 C641.01,495.59 639.51,496.00 638.01,496.00 C637.73,496.00 637.46,496.02 637.18,496.05 C635.31,496.18 634.16,496.70 633.26,497.94 C632.47,498.75 631.95,499.75 631.88,500.82 C631.85,501.20 631.81,501.74 631.76,502.34 L 631.76 502.34 C631.73,502.70 631.69,503.10 631.66,503.54 C631.62,504.05 631.58,504.55 631.55,505.00 C631.52,505.27 631.50,506.07 631.47,507.30 C631.26,513.07 631.18,521.68 631.22,530.77 C631.20,533.24 631.19,535.81 631.17,538.42 C631.08,555.42 630.82,569.15 630.59,568.92 C630.37,568.69 629.99,564.32 629.75,559.21 C629.51,554.10 628.82,549.42 628.20,548.80 C626.25,546.85 624.00,549.81 623.98,554.37 C623.97,559.02 622.77,561.60 621.11,560.57 C620.38,560.12 619.96,561.18 619.87,563.69 L 619.74 567.50 L 618.26 560.50 L 618.12 565.00 C618.04,567.47 617.64,570.02 617.23,570.66 C616.96,571.10 616.78,567.53 616.76,561.95 C616.89,559.14 616.94,555.77 616.95,551.73 ZM 708.57 294.75 C708.41,295.99 708.55,297.00 708.89,297.00 C709.72,296.99 712.32,294.71 715.48,291.30 C711.97,295.34 708.88,298.54 708.29,298.74 C707.58,298.97 704.61,294.20 701.03,287.07 C697.71,280.43 694.65,275.01 694.24,275.01 C693.91,275.02 692.04,278.14 689.74,282.42 L 687.51 280.77 C685.33,279.16 685.18,278.37 685.22,269.27 C685.26,258.58 684.45,247.54 683.51,246.02 C683.19,245.49 683.55,244.03 684.32,242.78 C685.10,241.53 687.46,236.34 689.57,231.25 C692.98,223.05 695.00,219.98 695.00,223.00 C695.00,223.55 695.51,224.00 696.12,224.00 C696.51,224.00 696.71,223.91 696.73,223.71 C697.35,225.38 698.19,227.40 699.38,230.06 C699.29,230.02 699.18,230.00 699.06,230.00 C698.48,230.00 698.00,230.21 698.00,230.48 C698.00,231.39 709.86,256.54 712.58,261.39 L 715.33 266.28 L 713.03 274.89 C710.68,283.67 709.10,290.72 708.57,294.75 ZM 966.54 548.72 C950.11,532.03 936.24,518.24 934.72,517.08 C934.75,517.03 934.78,517.00 934.81,517.00 C935.33,517.00 942.23,523.75 950.14,532.00 C958.05,540.25 965.01,547.00 965.59,547.00 C967.48,547.00 966.74,543.75 964.74,543.22 C963.21,542.82 962.89,542.03 963.21,539.36 C963.42,537.51 963.18,536.00 962.68,536.00 C962.17,536.00 962.32,535.33 963.00,534.50 C964.37,532.84 966.48,532.41 965.51,533.99 C965.15,534.56 965.57,534.72 966.49,534.36 C967.93,533.81 967.91,533.54 966.31,531.63 C965.34,530.46 966.20,531.03 968.23,532.91 C970.26,534.78 971.65,536.77 971.31,537.31 C970.97,537.86 971.15,538.03 971.70,537.69 C972.26,537.34 973.79,538.22 975.10,539.63 C976.42,541.04 978.85,543.13 980.50,544.26 C983.48,546.32 983.48,546.31 980.02,542.42 C978.21,540.37 975.50,537.49 972.25,534.13 C984.40,546.35 993.33,555.01 993.57,554.76 C993.89,554.44 993.67,541.93 993.09,526.94 C991.92,496.72 991.74,496.00 985.40,496.00 C984.33,496.00 983.28,495.84 982.53,495.60 C984.43,496.15 988.30,495.95 990.50,495.00 C991.80,494.44 991.04,494.17 987.79,494.09 C989.63,494.03 991.85,494.00 994.44,494.00 C1007.00,494.00 1011.38,494.94 1005.61,496.38 C1004.30,496.71 1002.96,497.67 1002.63,498.52 C1002.31,499.36 1001.73,517.60 1001.36,539.04 C1000.79,571.40 1000.43,578.23 999.22,579.24 C998.00,580.24 992.54,575.14 966.54,548.72 ZM 738.51 495.02 C738.92,494.38 743.41,494.00 751.44,494.00 C762.83,494.00 765.00,494.24 765.00,495.50 C765.00,496.33 764.57,497.00 764.04,497.00 C761.44,497.00 760.81,505.31 761.15,535.10 C761.46,562.24 761.69,565.89 763.27,568.30 C764.25,569.78 765.94,571.00 767.02,571.00 C768.11,571.00 769.00,571.51 769.00,572.14 C769.00,573.69 788.26,572.71 788.79,571.13 C789.00,570.51 789.73,570.00 790.41,570.00 C791.69,570.00 793.20,567.60 794.95,562.75 C795.50,561.24 796.46,560.00 797.09,560.00 C797.26,560.00 797.39,560.15 797.49,560.41 C796.80,559.71 795.49,561.11 794.40,564.25 C793.45,567.01 793.43,567.98 794.32,568.28 C795.58,568.70 796.94,567.24 797.59,565.13 C797.31,568.19 796.61,572.04 795.65,574.98 L 794.49 578.50 L 781.00 578.54 C778.00,578.55 774.16,578.54 770.12,578.51 C766.77,578.41 764.02,578.27 762.68,578.11 L 757.86 577.50 L 759.97 575.25 C761.70,573.40 761.79,573.00 760.48,573.00 C759.60,573.00 759.16,572.55 759.50,572.00 C759.84,571.45 759.61,571.00 759.00,571.00 C758.39,571.00 758.16,570.55 758.50,570.00 C758.84,569.45 758.60,569.00 757.96,569.00 C757.33,569.00 755.46,568.04 753.82,566.87 L 750.83 564.74 L 751.40 547.22 C751.97,529.52 751.54,523.54 749.88,526.15 C749.19,527.25 748.99,527.22 748.80,526.00 C748.67,525.17 748.31,533.72 748.00,545.00 C747.44,565.26 747.43,565.13 747.22,534.40 C747.04,508.75 746.77,500.70 744.67,497.87 C744.59,497.75 744.51,497.66 744.43,497.57 C744.41,497.55 744.39,497.53 744.37,497.51 C744.12,497.25 743.85,497.05 743.56,496.89 C742.73,496.36 741.73,496.00 740.99,496.00 C739.97,496.00 738.86,495.56 738.51,495.02 ZM 592.00 324.85 L 592.03 324.93 L 595.06 333.98 L 590.86 341.74 C588.27,346.52 585.24,351.96 581.98,357.75 C585.71,350.92 586.20,349.18 585.20,348.60 C583.66,347.71 582.11,349.04 579.43,353.58 C578.47,355.18 578.00,355.24 575.23,354.10 C571.02,352.35 564.34,353.57 561.27,356.63 C559.95,357.96 558.50,358.81 558.05,358.53 C557.60,358.25 557.29,358.76 557.36,359.66 C557.45,360.68 556.66,361.36 555.24,361.48 C553.17,361.65 553.10,361.50 554.37,359.56 C556.91,355.69 571.00,329.94 570.98,329.22 C570.97,328.82 568.89,332.10 566.36,336.50 C560.45,346.79 546.65,370.08 533.20,392.60 C545.96,371.13 558.35,349.92 564.74,338.50 C567.82,333.00 570.75,328.22 571.25,327.89 C571.76,327.55 572.15,326.88 572.13,326.39 C572.09,325.43 579.90,310.82 580.90,310.00 C581.23,309.73 582.28,307.81 583.23,305.75 C583.25,305.70 583.28,305.66 583.30,305.61 ZM 747.73 343.83 C749.34,340.90 750.96,337.85 752.40,335.00 C757.01,325.90 760.52,317.75 763.09,310.12 C759.30,321.93 753.68,334.42 746.64,346.50 C744.08,350.90 743.10,353.15 744.48,351.50 C745.85,349.85 749.51,343.55 752.62,337.50 C755.72,331.45 758.72,326.05 759.28,325.50 C759.96,324.83 760.08,324.88 759.64,325.67 C759.17,326.50 759.77,326.62 761.74,326.09 C763.25,325.69 765.73,325.83 767.25,326.40 C769.23,327.15 770.89,327.10 773.19,326.23 C775.87,325.22 776.66,325.29 778.15,326.64 C779.97,328.28 781.27,328.23 782.53,326.09 C779.83,333.33 776.49,340.79 772.53,348.43 C771.75,349.67 771.07,350.53 770.47,351.02 C768.98,352.26 768.55,352.10 766.81,349.72 C765.23,347.54 764.48,347.21 762.99,348.01 C760.04,349.59 756.56,349.17 754.18,346.95 C752.96,345.82 751.45,345.22 750.82,345.61 C750.05,346.09 749.87,345.77 750.30,344.66 C750.65,343.75 750.76,343.00 750.55,343.00 C749.98,343.00 743.00,354.30 743.00,355.22 C743.00,355.65 743.90,356.90 745.00,358.00 C746.47,359.47 748.33,360.00 752.03,360.00 C755.90,360.00 757.22,360.40 757.73,361.75 C758.66,364.22 760.63,366.03 761.47,365.20 C762.55,364.14 760.15,369.35 757.72,373.50 C756.32,375.62 754.87,377.75 753.38,379.89 C754.65,377.76 754.13,377.63 752.05,378.95 C749.68,380.45 743.29,375.88 739.47,369.95 C737.76,367.30 736.81,366.09 736.74,364.84 C736.67,363.54 737.55,362.20 739.52,359.18 C739.86,358.67 740.22,358.11 740.61,357.50 C741.50,356.12 742.01,355.00 741.75,355.00 C741.48,355.00 740.08,356.79 738.63,358.98 C733.89,366.15 713.85,390.75 701.78,404.39 C702.50,403.56 703.24,402.70 704.00,401.82 C704.85,400.83 705.74,399.80 706.64,398.73 C719.06,384.20 728.36,372.66 735.60,362.74 C737.51,360.22 739.11,358.04 740.29,356.35 C741.01,355.32 741.95,353.84 743.01,352.07 C743.43,351.44 743.83,350.81 744.23,350.20 C744.73,349.41 746.05,347.01 747.73,343.83 ZM 736.09 402.71 C728.39,412.23 720.39,421.57 714.93,427.17 C711.53,430.65 709.33,432.68 710.05,431.69 C711.99,428.99 712.28,423.12 710.65,419.60 C709.86,417.90 707.99,413.87 706.49,410.65 L 703.76 404.81 L 699.10 409.40 C696.53,411.93 693.92,414.00 693.31,414.00 C692.69,414.00 690.13,411.64 687.61,408.75 C683.70,404.25 683.05,403.83 683.02,405.79 C683.01,407.05 682.10,409.84 681.00,412.00 C679.90,414.16 679.00,416.60 679.00,417.42 C679.00,418.25 678.05,419.81 676.88,420.89 C675.25,422.42 674.87,423.72 675.20,426.61 L 675.64 430.35 L 671.20 425.45 C669.68,423.76 668.16,422.06 666.66,420.35 C664.62,417.88 662.08,414.86 659.68,412.05 C658.96,411.20 658.24,410.35 657.52,409.49 C660.18,412.54 662.59,415.00 662.93,415.00 C663.28,415.00 663.66,413.79 663.79,412.32 C663.91,410.84 664.62,408.70 665.38,407.55 C666.13,406.40 667.57,402.69 668.57,399.30 C669.58,395.91 670.76,393.35 671.20,393.62 C671.64,393.90 672.00,393.60 672.00,392.98 C672.00,390.83 673.80,392.51 683.03,403.30 C688.11,409.24 692.82,413.96 693.50,413.80 C694.17,413.63 699.32,408.44 704.93,402.25 C710.54,396.06 715.50,391.00 715.96,391.00 C717.42,391.00 718.03,394.08 716.96,396.08 C716.11,397.66 716.34,398.20 718.24,399.06 C720.45,400.07 726.80,410.60 726.23,412.32 C725.44,414.69 729.91,410.13 736.09,402.71 ZM 795.24 338.20 L 792.95 334.14 L 793.30 332.99 C793.39,333.46 794.32,333.10 796.94,331.80 C799.19,330.68 803.08,329.65 805.58,329.49 C808.08,329.33 810.37,328.96 810.66,328.67 C810.96,328.38 811.90,328.41 812.76,328.74 C813.88,329.17 814.09,328.96 813.51,328.02 C812.96,327.13 813.08,326.93 813.85,327.41 C814.91,328.06 818.16,333.40 829.90,353.75 C832.03,357.43 834.15,360.50 834.86,360.94 C834.63,361.09 833.73,360.19 832.15,358.25 C830.92,356.74 830.16,356.03 830.47,356.68 C830.84,357.46 830.02,357.36 828.06,356.38 C826.42,355.56 823.15,354.76 820.79,354.59 C818.43,354.41 815.27,353.78 813.76,353.17 C812.25,352.56 810.34,352.32 809.51,352.64 C808.68,352.95 807.21,352.87 806.25,352.44 C805.29,352.02 804.10,351.63 803.62,351.59 C803.14,351.54 800.54,347.59 797.85,342.82 L 796.75 340.87 C796.17,339.83 795.68,338.96 795.33,338.35 ZM 722.72 335.70 C721.50,336.90 720.34,337.99 719.26,338.96 C714.36,343.33 713.36,343.85 712.40,342.53 C711.06,340.70 707.64,340.46 708.29,342.25 C708.54,342.94 709.21,343.40 709.78,343.28 C710.35,343.16 711.41,343.79 712.14,344.67 C712.57,345.18 712.64,345.75 711.98,346.80 C711.23,347.56 710.48,348.32 709.71,349.10 L 707.11 348.52 C705.40,348.15 704.00,347.49 704.00,347.05 C704.00,345.96 695.94,340.73 695.27,341.39 C694.98,341.69 695.71,344.56 696.91,347.77 C698.11,350.98 699.17,354.59 699.26,355.80 C699.39,357.54 699.90,358.19 701.10,357.67 C696.49,362.20 691.84,366.70 687.89,370.46 C684.18,373.89 680.87,376.91 678.82,378.72 C677.87,379.56 676.95,380.38 676.10,381.15 L 676.27 380.98 C679.17,378.05 680.98,375.53 680.33,375.30 C678.78,374.75 679.61,370.36 682.06,366.19 C683.13,364.37 684.00,362.43 684.00,361.87 C684.00,361.31 684.67,360.18 685.50,359.36 C686.32,358.53 687.29,356.65 687.65,355.18 C688.01,353.71 689.36,350.17 690.65,347.31 C693.32,341.43 693.51,339.91 691.78,338.18 C690.83,337.23 691.40,336.17 694.47,333.23 C696.62,331.18 697.90,330.17 697.32,331.00 C695.82,333.15 694.85,337.79 695.78,338.36 C696.21,338.63 700.83,337.71 706.03,336.32 C711.24,334.92 716.05,333.69 716.72,333.59 C717.39,333.48 718.26,333.08 718.64,332.70 C719.73,331.60 724.19,331.88 723.50,333.00 C723.16,333.55 723.33,334.00 723.87,334.00 C724.05,334.00 724.34,333.85 724.73,333.56 C724.07,334.27 723.40,334.98 722.72,335.70 ZM 611.67 299.39 C608.09,296.31 601.05,295.21 599.40,297.46 C598.66,298.48 598.30,298.49 597.93,296.71 C597.65,292.98 597.54,288.87 597.53,284.00 C597.52,278.63 597.67,274.13 598.08,270.09 C598.19,269.25 598.31,268.42 598.44,267.60 C598.53,267.72 598.66,267.71 598.84,267.60 C599.35,267.28 601.39,266.77 603.38,266.45 C606.56,265.95 607.00,266.13 607.00,267.94 C607.00,269.07 607.43,270.00 607.96,270.00 C608.49,270.00 609.36,271.69 609.89,273.75 C610.43,275.81 612.09,281.87 613.59,287.21 C615.09,292.56 616.70,296.69 617.17,296.39 C617.40,296.25 617.53,296.00 617.56,295.70 C617.86,296.72 618.14,297.68 618.43,298.60 C618.78,299.93 619.00,300.91 619.00,301.17 C619.00,302.73 614.19,301.56 611.67,299.39 ZM 631.42 630.11 C633.93,629.91 634.00,630.37 634.00,632.36 L 634.00 635.00 L 614.25 634.77 C611.74,634.74 608.58,634.70 604.99,634.65 L 604.98 634.65 C594.12,634.49 580.21,634.25 570.00,634.03 C536.99,633.32 545.98,632.16 589.50,631.52 C603.72,631.31 617.34,630.96 624.32,630.66 L 624.32 630.66 C626.91,630.56 628.63,630.47 629.25,630.38 C630.12,630.26 630.84,630.17 631.42,630.11 ZM 753.16 632.91 C753.45,630.86 754.02,630.52 757.00,630.63 C757.75,630.66 761.64,630.73 767.63,630.84 L 767.63 630.84 C775.59,631.00 787.13,631.22 799.43,631.46 C820.84,631.86 839.29,632.57 840.43,633.04 C841.73,633.56 838.19,633.90 830.91,633.94 C825.95,633.96 812.62,634.17 798.33,634.43 C801.80,634.09 809.49,633.47 815.50,633.05 L 826.50 632.29 L 809.25 632.14 C794.38,632.02 792.00,632.21 792.00,633.53 C792.00,634.03 792.16,634.35 792.67,634.54 C790.46,634.58 788.25,634.62 786.07,634.66 L 752.82 635.33 ZM 715.65 493.66 L 715.56 494.84 C715.44,495.10 715.29,495.38 715.12,495.67 C714.54,496.68 714.05,496.98 714.03,496.34 C714.00,495.14 711.89,495.16 706.24,496.43 C704.45,496.83 703.24,497.58 703.55,498.08 C704.33,499.35 701.31,499.24 698.83,497.91 C697.35,497.12 696.48,497.12 695.69,497.91 C694.13,499.47 687.40,499.26 684.10,497.55 C681.19,496.04 677.00,495.85 677.00,497.21 C677.00,497.65 676.66,497.95 676.25,497.88 C673.98,497.52 672.85,498.16 673.36,499.50 C673.68,500.33 673.51,501.00 672.99,501.00 C672.45,501.00 671.92,508.30 671.75,518.25 L 671.45 535.50 L 671.22 518.82 C671.10,509.64 670.58,501.03 670.07,499.69 C670.07,499.68 670.06,499.66 670.06,499.65 L 670.07 497.93 L 667.25 496.65 C666.78,496.35 666.30,496.09 665.82,495.89 C662.87,494.69 665.43,494.48 689.00,494.02 C702.60,493.75 714.03,493.60 715.65,493.66 ZM 726.24 655.12 C726.82,655.75 727.77,656.09 729.25,656.28 C729.92,656.36 729.85,656.44 729.19,656.51 C728.03,656.62 725.25,656.70 721.50,656.70 C718.88,656.71 716.67,656.68 715.10,656.62 C713.73,656.54 712.89,656.43 712.74,656.30 C712.76,656.30 712.78,656.29 712.80,656.29 C713.25,656.20 713.66,656.05 714.03,655.82 L 715.50 655.41 L 715.51 654.26 C716.50,652.61 717.00,650.00 717.00,646.47 C717.00,642.95 717.30,642.18 718.51,642.64 C719.34,642.96 720.69,642.67 721.51,641.99 C723.63,640.24 723.59,627.74 721.47,625.97 C720.20,624.92 719.69,625.03 718.50,626.60 C717.19,628.34 717.06,628.10 717.03,623.75 C717.01,621.14 717.45,619.00 718.00,619.00 C718.55,619.00 719.01,620.01 719.03,621.25 C719.05,622.90 719.68,622.25 721.37,618.78 L 723.69 614.07 L 724.30 632.36 C724.33,639.65 724.69,647.45 725.26,651.82 C725.38,653.21 725.49,654.10 725.58,654.34 C725.68,654.60 725.91,654.87 726.24,655.12 ZM 884.56 450.09 C884.25,449.59 884.30,448.39 884.67,447.43 C885.12,446.24 884.97,445.90 884.18,446.39 C883.47,446.83 883.22,446.60 883.53,445.78 C884.17,444.11 879.60,437.76 878.49,438.76 C878.05,439.17 878.00,438.95 878.38,438.28 C879.29,436.70 876.11,431.81 874.74,432.66 C874.13,433.03 873.99,432.83 874.39,432.18 C874.78,431.55 874.61,430.13 874.01,429.02 C873.42,427.91 873.32,427.00 873.80,427.00 C874.15,427.00 876.00,429.37 878.33,432.76 C879.11,433.99 879.95,435.29 880.83,436.61 C885.13,443.15 888.98,449.06 889.38,449.75 C889.71,450.30 888.38,450.66 886.07,450.83 C885.33,450.66 884.74,450.39 884.56,450.09 ZM 723.02 612.25 C723.01,611.49 721.54,610.97 719.25,610.93 C717.64,610.90 715.72,610.64 714.43,610.30 L 713.77 610.04 C713.34,609.87 713.18,609.72 713.30,609.60 C713.88,609.30 716.50,609.15 721.00,609.15 C722.04,609.15 722.96,609.15 723.77,609.16 L 723.77 609.16 C727.33,609.21 728.80,609.37 728.66,609.69 C728.52,609.83 728.12,610.01 727.50,610.23 C725.85,610.82 724.17,611.79 723.77,612.40 C723.26,613.16 723.03,613.11 723.02,612.25 ZM 704.81 655.75 C706.56,656.53 706.73,656.80 703.95,656.90 L 703.00 656.89 C700.53,656.87 697.62,656.52 696.55,656.10 C694.72,655.38 694.74,655.30 696.89,654.74 C698.73,654.26 699.05,653.69 698.50,651.82 L 697.81 649.50 L 699.54 651.85 C700.27,652.86 701.76,654.10 703.19,654.95 C703.44,655.10 703.70,655.24 703.97,655.37 L 703.98 655.38 C704.11,655.44 704.25,655.51 704.38,655.56 L 704.81 655.75 ZM 658.43 328.66 C659.24,327.36 659.14,326.71 658.00,325.99 C654.54,323.78 651.51,326.50 654.04,329.55 C655.52,331.33 656.94,331.05 658.43,328.66 ZM 631.50 577.00 C631.16,576.45 631.39,576.00 632.00,576.00 C632.61,576.00 632.84,575.55 632.50,575.00 C631.68,573.67 632.65,573.74 635.32,575.18 C635.71,575.39 636.20,575.58 636.75,575.74 C637.61,576.02 638.54,576.17 639.51,576.18 C639.77,576.19 640.02,576.18 640.25,576.17 C641.73,576.06 642.95,576.41 643.00,576.95 C642.93,577.42 640.29,577.73 634.98,577.89 C633.21,577.75 631.78,577.45 631.50,577.00 ZM 575.50 633.00 C579.35,633.36 583.49,633.73 584.69,633.82 C585.90,633.92 587.16,633.55 587.50,633.00 C587.90,632.35 584.64,632.06 578.31,632.18 L 568.50 632.35 ZM 651.00 325.47 C651.00,323.62 648.61,322.55 646.39,323.40 C645.08,323.91 645.01,324.31 646.01,325.51 C647.62,327.46 651.00,327.43 651.00,325.47 ZM 794.00 386.89 C794.00,386.28 794.67,386.05 795.50,386.36 C798.11,387.36 797.12,386.21 794.08,384.69 C791.46,383.38 791.21,383.39 791.75,384.78 C792.14,385.80 791.94,386.08 791.17,385.61 C789.93,384.84 789.54,386.20 790.67,387.33 C791.73,388.40 794.00,388.10 794.00,386.89 ZM 608.61 576.10 C608.69,576.08 608.77,576.06 608.85,576.04 C609.08,576.01 609.32,576.00 609.57,576.00 C610.98,576.00 613.06,575.51 614.19,574.90 C615.68,574.10 616.06,574.10 615.56,574.90 C615.19,575.51 615.36,576.00 615.94,576.00 C616.52,576.00 617.00,576.45 617.00,577.00 C617.00,577.36 616.06,577.67 614.65,577.85 C612.73,577.78 611.11,577.70 609.86,577.60 C610.23,577.45 610.62,577.25 611.00,577.00 C612.17,576.24 611.89,576.03 609.75,576.02 C609.35,576.01 608.96,576.04 608.61,576.10 ZM 738.64 576.04 C738.95,576.01 739.32,576.00 739.74,576.00 C741.08,576.00 742.13,575.98 742.96,575.55 C743.08,575.52 743.19,575.48 743.29,575.44 C744.09,575.14 745.01,575.59 745.34,576.44 C745.67,577.29 745.46,577.71 744.30,577.89 C740.52,577.63 737.89,577.29 737.57,576.97 C737.51,576.91 737.46,576.84 737.42,576.79 C737.38,576.43 737.85,576.15 738.64,576.04 ZM 680.77 608.21 C681.12,608.28 682.11,610.01 683.49,612.88 C683.89,615.37 683.44,615.18 681.96,612.42 C680.65,609.98 680.51,609.94 679.19,611.68 C677.91,613.35 677.85,613.30 678.52,611.00 C678.74,610.24 678.92,609.65 679.09,609.21 C679.65,608.53 680.26,608.11 680.77,608.21 ZM 706.75 245.59 C708.70,249.59 711.00,254.26 713.72,259.76 L 720.89 274.24 C712.07,257.93 706.26,246.16 706.75,245.59 ZM 713.97 508.22 C713.67,509.25 713.34,509.73 713.00,509.65 C712.90,509.56 712.79,509.46 712.67,509.33 C711.64,508.31 711.88,504.19 713.00,503.50 C713.60,503.13 714.00,504.32 714.00,506.44 C714.00,507.15 713.99,507.74 713.97,508.22 ZM 665.86 577.79 C662.81,577.57 661.03,577.28 661.00,576.98 C661.03,576.44 662.62,576.00 664.56,576.00 C666.68,576.00 667.87,576.40 667.50,577.00 C667.30,577.32 666.67,577.61 665.86,577.79 ZM 675.86 256.61 C681.77,245.17 686.71,234.86 689.57,227.76 C690.82,224.68 692.03,221.92 692.91,220.12 C692.02,224.30 684.85,239.32 675.86,256.61 ZM 711.78 543.80 C711.46,544.48 711.11,544.88 710.80,544.96 C710.35,544.76 710.27,543.71 710.62,542.25 C711.56,538.32 712.00,538.19 712.00,541.83 C712.00,542.58 711.92,543.26 711.78,543.80 ZM 928.78 492.00 C928.82,492.00 928.86,492.00 928.91,492.00 C930.01,492.00 940.98,502.45 958.08,519.77 C944.40,506.14 929.86,492.19 928.78,492.00 ZM 682.00 639.00 C683.97,637.73 686.29,637.73 685.50,639.00 C685.16,639.55 683.90,639.99 682.69,639.98 C680.91,639.97 680.78,639.79 682.00,639.00 ZM 694.38 412.50 L 693.65 413.29 L 690.16 409.39 C687.17,406.06 681.27,399.33 676.66,394.00 C675.95,393.17 674.39,391.09 673.20,389.37 L 671.04 386.25 L 671.11 386.17 C672.22,388.69 692.84,413.04 693.85,412.93 C693.88,412.93 693.94,412.89 694.03,412.81 C694.12,412.74 694.24,412.63 694.38,412.50 ZM 819.71 332.70 C819.41,332.26 819.13,332.00 818.92,332.00 C818.42,332.00 818.00,331.51 818.00,330.91 C818.00,330.09 812.55,319.73 808.01,311.54 C808.76,312.89 809.55,314.32 810.36,315.80 C812.76,320.21 816.25,326.51 819.71,332.70 ZM 701.83 235.37 C703.10,238.06 704.63,241.24 706.48,245.03 C706.37,245.01 706.25,245.00 706.11,245.00 C705.43,245.00 705.16,244.55 705.50,244.00 C705.84,243.45 705.61,243.00 705.00,243.00 C704.39,243.00 704.16,242.55 704.50,242.00 C704.84,241.45 704.57,241.00 703.89,241.00 C703.22,241.00 702.95,240.72 703.30,240.37 C703.65,240.02 703.40,238.78 702.75,237.62 C702.31,236.82 701.96,235.96 701.83,235.37 ZM 827.19 346.01 C827.15,346.00 827.12,346.00 827.08,346.00 C826.51,346.00 825.76,344.88 825.41,343.50 C825.07,342.12 824.36,341.00 823.83,341.00 C823.31,341.00 823.16,340.55 823.50,340.00 C823.56,339.90 823.61,339.81 823.64,339.72 C824.72,341.64 825.75,343.47 826.69,345.12 C826.86,345.42 827.02,345.71 827.19,346.01 ZM 615.62 288.79 C615.37,288.16 615.09,287.61 614.81,287.27 C614.23,286.57 613.99,286.00 614.29,286.00 C614.58,286.00 614.16,283.41 613.36,280.25 C613.09,279.19 612.85,277.91 612.63,276.46 C612.84,277.82 613.07,279.02 613.33,280.00 C613.60,281.03 613.85,282.03 614.10,282.99 C614.53,284.78 615.03,286.69 615.62,288.79 ZM 739.43 317.07 C747.06,307.60 755.62,296.16 760.63,288.34 C755.06,297.04 747.47,307.26 739.87,316.55 L 739.86 316.55 C739.72,316.72 739.58,316.90 739.43,317.07 ZM 823.24 339.01 C823.20,339.00 823.17,339.00 823.14,339.00 C822.60,339.00 821.64,337.42 821.00,335.50 C820.80,334.89 820.57,334.32 820.33,333.83 C821.32,335.59 822.30,337.33 823.24,339.01 ZM 695.00 219.10 C695.34,219.78 695.72,220.72 696.05,221.75 C696.20,222.21 696.36,222.69 696.55,223.20 C696.46,223.07 696.35,222.92 696.21,222.75 C695.20,221.54 695.01,220.97 695.00,219.10 ZM 831.35 353.47 C830.98,352.96 830.61,352.52 830.28,352.18 C829.58,351.45 829.00,350.21 829.00,349.43 C829.00,349.35 829.00,349.28 828.99,349.21 C829.82,350.70 830.62,352.14 831.35,353.47 ZM 917.79 578.28 C919.83,578.42 925.71,578.52 932.24,578.50 C942.42,578.47 946.42,578.12 946.75,577.24 C946.45,578.15 942.58,578.50 932.42,578.55 C925.73,578.57 919.67,578.46 917.79,578.28 ZM 793.83 331.25 L 796.42 322.70 C796.84,321.30 797.26,319.85 797.67,318.41 C796.34,323.30 794.86,328.34 793.83,331.25 ZM 699.65 230.65 C699.85,231.10 700.06,231.56 700.28,232.04 C700.20,232.01 700.10,232.00 700.00,232.00 C699.39,232.00 699.16,231.55 699.50,231.00 C699.58,230.88 699.62,230.76 699.65,230.65 ZM 828.38 348.13 C828.25,348.05 828.10,348.00 827.94,348.00 C827.36,348.00 827.16,347.55 827.50,347.00 C827.55,346.92 827.59,346.84 827.62,346.77 C827.88,347.23 828.13,347.68 828.38,348.13 ZM 700.61 232.76 C700.80,233.17 701.00,233.59 701.20,234.02 C701.12,234.01 701.03,234.00 700.94,234.00 C700.36,234.00 700.16,233.55 700.50,233.00 C700.55,232.92 700.59,232.84 700.61,232.76 ZM 427.90 544.98 C428.75,544.42 430.19,528.91 429.55,527.27 C429.59,527.27 429.61,527.28 429.63,527.29 C430.26,527.93 428.67,545.00 427.98,545.00 C427.95,545.00 427.93,544.99 427.90,544.98 ZM 791.60 274.54 C791.54,268.05 791.04,261.54 790.17,255.14 C791.04,261.21 791.51,267.07 791.59,273.05 C791.59,273.54 791.59,274.04 791.60,274.54 ZM 616.20 290.86 C616.56,292.19 616.91,293.43 617.25,294.60 C616.85,293.91 616.39,292.33 616.21,291.02 C616.20,290.93 616.18,290.84 616.17,290.74 L 616.20 290.86 ZM 934.36 529.88 C934.53,539.09 935.00,551.61 935.63,561.90 C934.93,550.56 934.49,538.60 934.36,529.88 ZM 599.68 261.37 C599.78,260.96 599.89,260.55 599.99,260.16 C600.38,258.73 600.94,257.05 601.62,255.22 C600.82,257.65 600.18,259.69 599.68,261.37 ZM 427.00 542.90 C427.00,543.09 427.01,543.28 427.03,543.46 C426.89,543.04 426.76,542.56 426.66,542.05 C426.59,541.71 426.51,541.39 426.41,541.09 C426.78,541.79 427.00,542.43 427.00,542.90 ZM 583.87 578.12 C584.43,577.79 584.70,577.40 584.47,576.96 C584.48,576.97 584.49,576.99 584.50,577.00 C584.84,577.55 584.75,578.04 584.31,578.09 C584.20,578.10 584.05,578.11 583.87,578.12 ZM 434.71 563.13 C434.54,561.81 434.24,561.11 433.88,561.09 C433.97,561.03 434.06,561.00 434.15,561.00 C434.47,561.00 434.64,561.83 434.71,563.13 ZM 649.46 399.59 C649.13,399.17 648.80,398.75 648.48,398.34 C645.07,393.94 641.78,389.52 638.64,385.13 C642.22,390.08 646.00,395.13 649.46,399.59 ZM 427.69 527.86 C427.59,527.94 427.48,528.02 427.37,528.11 C427.04,528.38 426.42,528.63 425.49,528.86 C425.75,528.76 426.00,528.65 426.24,528.53 C426.75,528.28 427.24,528.05 427.69,527.86 ZM 927.86 492.32 C927.10,493.14 926.97,495.86 926.89,504.25 C926.97,495.75 927.07,493.11 927.86,492.32 ZM 548.42 578.08 C547.90,577.56 547.81,577.10 548.11,576.74 C547.90,577.10 548.01,577.56 548.46,578.10 C548.43,578.09 548.42,578.09 548.42,578.08 ZM 614.62 497.20 C614.66,497.26 614.70,497.32 614.73,497.37 C614.36,496.97 613.93,496.67 613.43,496.46 C614.02,496.66 614.45,496.92 614.62,497.20 ZM 613.10 234.47 C613.07,235.39 612.80,236.94 612.30,239.10 C612.73,237.25 613.01,235.59 613.10,234.47 ZM 547.00 417.64 C547.07,418.13 549.52,416.86 553.13,414.58 C549.47,416.89 547.00,418.18 547.00,417.66 C547.00,417.65 547.00,417.65 547.00,417.64 ZM 918.81 576.00 C917.33,576.00 916.31,576.43 916.03,576.95 C916.25,576.43 917.26,576.00 918.81,576.00 ZM 641.49 495.02 C641.58,494.84 641.28,494.69 640.57,494.56 C641.29,494.69 641.60,494.83 641.50,495.00 C641.50,495.01 641.49,495.01 641.49,495.02 ZM 724.24 281.01 L 724.25 281.02 L 723.54 281.86 ZM 694.17 218.01 L 694.17 218.01 C694.19,218.01 694.22,218.02 694.24,218.03 C694.22,218.02 694.19,218.02 694.17,218.01 ZM 789.39 301.07 C789.41,300.94 789.43,300.82 789.46,300.69 L 789.44 300.80 C789.42,300.89 789.41,300.98 789.39,301.07 Z" fill="rgb(191,166,111)"/>
<path d="M 792.00 633.53 C792.00,632.21 794.38,632.02 809.25,632.14 L 826.50 632.29 L 815.50 633.05 C809.45,633.47 801.69,634.10 798.25,634.44 C793.04,634.95 792.00,634.80 792.00,633.53 ZM 575.50 633.00 L 568.50 632.35 L 578.31 632.18 C584.64,632.06 587.90,632.35 587.50,633.00 C587.16,633.55 585.90,633.92 584.69,633.82 C583.49,633.73 579.35,633.36 575.50,633.00 ZM 487.72 578.49 C473.52,574.90 461.45,565.72 455.77,554.18 C452.63,547.80 452.50,547.08 452.50,535.52 C452.50,524.11 452.66,523.17 455.63,517.00 C459.62,508.70 464.32,503.37 471.43,499.10 C482.54,492.43 499.26,490.46 519.00,493.50 C524.22,494.31 528.84,494.97 529.25,494.98 C530.70,495.02 529.39,518.00 527.94,518.00 C527.52,518.00 526.87,516.21 526.50,514.02 C525.52,508.20 522.16,503.83 516.50,501.00 C512.08,498.79 510.23,498.50 500.50,498.50 C491.28,498.50 488.73,498.86 484.74,500.70 C478.79,503.45 474.53,507.92 471.14,515.00 C468.76,519.97 468.50,521.61 468.52,532.00 C468.53,541.70 468.90,544.42 470.87,549.34 C474.42,558.21 480.38,564.88 488.45,569.00 C494.46,572.07 496.37,572.54 504.18,572.85 C512.16,573.17 513.62,572.93 518.46,570.56 C522.72,568.48 524.30,567.02 525.93,563.65 C527.07,561.29 528.00,558.84 528.00,558.18 C528.00,557.53 528.67,557.00 529.50,557.00 C531.33,557.00 531.33,556.61 529.50,567.00 C528.68,571.67 528.00,575.64 528.00,575.80 C528.00,575.97 526.31,576.82 524.25,577.71 C518.94,579.98 495.59,580.49 487.72,578.49 ZM 841.25 578.45 C825.89,574.32 813.49,561.77 810.06,546.89 C808.43,539.83 808.81,528.80 810.89,522.09 C816.85,502.95 833.19,492.08 856.11,492.02 C865.69,491.99 872.54,493.52 880.67,497.51 C891.20,502.68 897.22,510.36 900.42,522.69 C906.68,546.84 892.08,572.32 868.46,578.47 C861.22,580.35 848.28,580.35 841.25,578.45 ZM 866.19 572.82 C884.40,567.37 891.45,536.87 879.86,513.78 C875.11,504.32 864.78,498.02 854.00,498.02 C844.77,498.01 840.43,499.52 834.98,504.62 C828.33,510.84 825.82,517.12 825.23,529.00 C824.69,539.87 826.34,548.19 830.76,556.90 C837.23,569.66 853.04,576.76 866.19,572.82 ZM 548.71 578.38 C547.30,576.97 548.05,576.00 550.57,576.00 C551.98,576.00 553.99,575.54 555.04,574.98 C556.74,574.07 556.86,574.21 556.12,576.23 C555.29,578.50 550.28,579.95 548.71,578.38 ZM 576.50 578.23 C575.95,577.83 574.87,576.70 574.10,575.72 C572.80,574.07 572.90,574.01 575.42,574.97 C576.91,575.54 579.42,576.00 581.01,576.00 C582.59,576.00 584.13,576.40 584.44,576.90 C585.52,578.65 578.65,579.81 576.50,578.23 ZM 917.07 578.19 C914.91,577.47 916.08,576.00 918.81,576.00 C920.35,576.00 922.49,575.36 923.56,574.58 C925.37,573.26 925.54,571.32 926.14,544.83 C926.49,529.25 926.83,510.99 926.89,504.25 C926.99,493.27 927.18,492.00 928.76,492.00 C930.26,492.00 969.69,530.78 980.02,542.42 C983.48,546.31 983.48,546.32 980.50,544.26 C978.85,543.13 976.42,541.04 975.10,539.63 C973.79,538.22 972.26,537.34 971.70,537.69 C971.15,538.03 970.97,537.86 971.31,537.31 C971.65,536.77 970.26,534.78 968.23,532.91 C966.20,531.03 965.34,530.46 966.31,531.63 C967.91,533.54 967.93,533.81 966.49,534.36 C965.57,534.72 965.15,534.56 965.51,533.99 C966.48,532.41 964.37,532.84 963.00,534.50 C962.32,535.33 962.17,536.00 962.68,536.00 C963.18,536.00 963.42,537.51 963.21,539.36 C962.89,542.03 963.21,542.82 964.74,543.22 C966.74,543.75 967.48,547.00 965.59,547.00 C965.01,547.00 958.05,540.25 950.14,532.00 C942.23,523.75 935.33,517.00 934.81,517.00 C933.89,517.00 934.32,540.55 935.63,561.90 C936.13,570.00 936.53,571.63 938.56,573.65 C940.02,575.12 942.09,576.00 944.04,576.00 C946.07,576.00 947.02,576.43 946.76,577.23 C946.46,578.12 942.48,578.47 932.24,578.50 C924.48,578.52 917.65,578.38 917.07,578.19 ZM 377.00 577.02 C377.00,576.46 378.42,576.00 380.17,576.00 C383.81,576.00 383.68,576.44 379.75,577.38 C378.12,577.77 377.00,577.62 377.00,577.02 ZM 607.00 577.00 C607.00,576.45 608.24,576.01 609.75,576.02 C611.89,576.03 612.17,576.24 611.00,577.00 C609.04,578.26 607.00,578.26 607.00,577.00 ZM 557.82 538.30 C558.00,519.27 557.88,502.68 557.57,501.42 C556.68,497.90 554.19,496.00 550.43,496.00 C548.54,496.00 547.00,495.55 547.00,495.00 C547.00,494.37 553.69,494.00 565.06,494.00 C576.84,494.00 582.90,494.35 582.50,495.00 C582.16,495.55 580.63,496.00 579.10,496.00 C573.76,496.00 572.99,498.20 572.73,514.10 L 572.50 528.50 L 594.50 529.03 C606.60,529.32 613.44,529.66 609.69,529.78 C605.46,529.92 603.12,530.38 603.50,531.00 C603.84,531.55 603.53,532.07 602.81,532.16 C602.09,532.25 603.97,532.63 607.00,533.00 C610.40,533.42 604.77,533.74 592.24,533.84 L 571.97 534.00 L 572.10 551.25 C572.25,570.48 571.92,574.22 571.07,563.01 C570.63,557.19 570.14,555.45 568.88,555.21 C567.92,555.03 567.04,555.76 566.71,557.01 C566.23,558.84 565.68,559.03 562.52,558.44 L 558.89 557.76 L 559.06 563.13 C559.15,566.08 558.84,569.49 558.36,570.70 C557.86,571.97 557.63,558.39 557.82,538.30 ZM 429.14 569.82 C430.59,568.43 432.09,565.89 432.47,564.15 C433.52,559.34 434.89,560.40 434.85,566.00 C434.83,568.75 434.40,571.00 433.90,571.00 C433.41,571.00 433.00,570.26 433.00,569.35 C433.00,567.86 432.82,567.85 431.25,569.19 C428.10,571.90 426.44,572.39 429.14,569.82 ZM 794.32 568.28 C793.43,567.98 793.45,567.01 794.40,564.25 C795.98,559.70 798.01,558.80 797.97,562.67 C797.93,565.94 796.04,568.86 794.32,568.28 ZM 427.00 542.90 C427.00,541.75 425.68,539.57 424.06,538.06 L 421.13 535.32 L 423.29 533.16 L 425.44 531.00 L 413.47 530.82 L 401.50 530.65 L 413.60 530.07 C421.74,529.69 426.25,529.04 427.37,528.11 C428.29,527.34 429.25,526.91 429.49,527.16 C430.29,527.95 428.72,545.00 427.85,545.00 C427.38,545.00 427.00,544.06 427.00,542.90 ZM 428.54 507.20 C427.48,502.37 424.88,500.82 416.46,500.00 C410.45,499.41 408.56,498.82 407.42,497.19 C406.63,496.06 404.97,494.94 403.74,494.70 C402.51,494.47 406.96,494.21 413.62,494.14 C420.29,494.06 427.16,493.72 428.87,493.38 L 432.00 492.75 L 431.37 500.63 C430.68,509.26 429.57,511.86 428.54,507.20 ZM 614.62 497.20 C614.22,496.54 612.36,496.00 610.50,496.00 C608.64,496.00 606.84,495.55 606.50,495.00 C606.10,494.35 612.18,494.00 624.00,494.00 C636.14,494.00 641.91,494.34 641.48,495.03 C641.07,495.70 636.87,495.82 629.42,495.39 C620.87,494.90 618.00,495.03 618.00,495.92 C618.00,496.58 617.59,496.86 617.09,496.55 C616.58,496.24 615.99,496.53 615.77,497.19 C615.46,498.13 615.20,498.13 614.62,497.20 ZM 981.50 495.00 C981.11,494.37 983.06,494.03 986.69,494.07 C990.86,494.12 991.94,494.38 990.50,495.00 C987.71,496.20 982.24,496.20 981.50,495.00 ZM 498.69 451.31 C498.40,450.84 501.34,445.29 505.23,438.98 C518.56,417.32 555.57,355.27 566.36,336.50 C568.89,332.10 570.97,328.82 570.98,329.22 C571.00,329.94 556.91,355.69 554.37,359.56 C553.10,361.50 553.17,361.65 555.24,361.48 C556.66,361.36 557.45,360.68 557.36,359.66 C557.29,358.76 557.60,358.25 558.05,358.53 C558.50,358.81 559.95,357.96 561.27,356.63 C564.34,353.57 571.02,352.35 575.23,354.10 C578.00,355.24 578.47,355.18 579.43,353.58 C582.11,349.04 583.66,347.71 585.20,348.60 C586.50,349.35 585.27,352.09 577.62,365.50 C572.60,374.30 563.65,389.52 557.74,399.31 C551.83,409.11 547.00,417.36 547.00,417.66 C547.00,418.70 556.63,412.64 566.00,405.71 C575.35,398.79 597.83,377.18 605.63,367.61 L 609.62 362.72 L 614.47 370.61 C617.13,374.95 620.37,379.94 621.67,381.70 L 624.03 384.91 L 609.76 399.28 C591.75,417.42 577.85,427.86 559.50,437.02 C544.52,444.50 533.65,448.21 521.86,449.86 C509.77,451.55 499.25,452.21 498.69,451.31 ZM 657.31 409.25 C650.10,400.95 636.78,383.07 629.18,371.50 C623.07,362.20 613.06,344.42 613.02,342.78 C612.97,341.03 615.93,343.42 617.00,346.00 C618.45,349.50 620.19,350.26 623.72,348.92 C625.21,348.35 627.50,348.16 628.81,348.49 C630.12,348.82 631.71,348.68 632.35,348.18 C632.98,347.68 635.93,347.00 638.90,346.67 C642.39,346.27 645.11,345.31 646.56,343.94 C648.42,342.20 649.18,342.03 650.92,342.96 C653.03,344.08 653.02,344.11 650.02,348.47 C648.36,350.89 647.00,353.17 647.00,353.55 C647.00,353.93 649.06,357.13 651.58,360.66 L 656.15 367.07 L 663.33 360.80 C674.40,351.12 713.52,311.68 723.13,300.50 C740.63,280.14 756.80,255.20 764.32,236.97 C767.39,229.53 770.68,219.37 773.70,208.00 L 774.63 204.50 L 776.90 209.50 C780.44,217.29 786.70,236.69 788.45,245.27 C793.72,271.25 792.39,296.04 784.35,321.55 C782.38,327.80 780.84,329.07 778.15,326.64 C776.66,325.29 775.87,325.22 773.19,326.23 C770.89,327.10 769.23,327.15 767.25,326.40 C765.73,325.83 763.25,325.69 761.74,326.09 C759.77,326.62 759.17,326.50 759.64,325.67 C760.08,324.88 759.96,324.83 759.28,325.50 C758.72,326.05 755.72,331.45 752.62,337.50 C749.51,343.55 745.85,349.85 744.48,351.50 C743.10,353.15 744.08,350.90 746.64,346.50 C759.25,324.88 767.28,301.91 768.50,284.00 C769.15,274.34 769.84,273.97 760.63,288.34 C750.63,303.96 726.44,334.00 723.87,334.00 C723.33,334.00 723.16,333.55 723.50,333.00 C724.19,331.88 719.73,331.60 718.64,332.70 C718.26,333.08 717.39,333.48 716.72,333.59 C716.05,333.69 711.24,334.92 706.03,336.32 C700.83,337.71 696.21,338.63 695.78,338.36 C694.85,337.79 695.82,333.15 697.32,331.00 C697.90,330.17 696.62,331.18 694.47,333.23 C691.40,336.17 690.83,337.23 691.78,338.18 C693.51,339.91 693.32,341.43 690.65,347.31 C689.36,350.17 688.01,353.71 687.65,355.18 C687.29,356.65 686.32,358.53 685.50,359.36 C684.67,360.18 684.00,361.31 684.00,361.87 C684.00,362.43 683.13,364.37 682.06,366.19 C679.61,370.36 678.78,374.75 680.33,375.30 C680.98,375.53 679.17,378.05 676.27,380.98 L 671.04 386.25 L 673.20 389.37 C674.39,391.09 675.95,393.17 676.66,394.00 C681.27,399.33 687.17,406.06 690.16,409.39 L 693.65 413.29 L 698.16 408.39 C709.33,396.29 733.37,366.93 738.63,358.98 C740.08,356.79 741.48,355.00 741.75,355.00 C742.01,355.00 741.50,356.12 740.61,357.50 C735.60,365.27 735.70,364.11 739.47,369.95 C743.29,375.88 749.68,380.45 752.05,378.95 C755.34,376.87 754.73,378.39 749.33,385.75 C737.92,401.29 724.93,416.23 726.23,412.32 C726.80,410.60 720.45,400.07 718.24,399.06 C716.34,398.20 716.11,397.66 716.96,396.08 C718.03,394.08 717.42,391.00 715.96,391.00 C715.50,391.00 710.54,396.06 704.93,402.25 C699.32,408.44 694.17,413.63 693.50,413.80 C692.82,413.96 688.11,409.24 683.03,403.30 C673.80,392.51 672.00,390.83 672.00,392.98 C672.00,393.60 671.64,393.90 671.20,393.62 C670.76,393.35 669.58,395.91 668.57,399.30 C667.57,402.69 666.13,406.40 665.38,407.55 C664.62,408.70 663.91,410.84 663.79,412.32 C663.66,413.79 663.28,415.00 662.93,415.00 C662.58,415.00 660.05,412.41 657.31,409.25 ZM 829.90 353.75 C818.16,333.40 814.91,328.06 813.85,327.41 C813.08,326.93 812.96,327.13 813.51,328.02 C814.09,328.96 813.88,329.17 812.76,328.74 C811.90,328.41 810.96,328.38 810.66,328.67 C810.37,328.96 808.08,329.33 805.58,329.49 C803.08,329.65 799.19,330.68 796.94,331.80 C793.38,333.56 792.94,333.61 793.49,332.16 C795.50,326.93 800.03,310.23 800.60,305.99 C800.96,303.27 801.61,301.26 802.04,301.53 C803.14,302.21 818.00,329.56 818.00,330.91 C818.00,331.51 818.42,332.00 818.92,332.00 C819.43,332.00 820.36,333.58 821.00,335.50 C821.64,337.42 822.60,339.00 823.14,339.00 C823.68,339.00 823.84,339.45 823.50,340.00 C823.16,340.55 823.31,341.00 823.83,341.00 C824.36,341.00 825.07,342.12 825.41,343.50 C825.76,344.88 826.51,346.00 827.08,346.00 C827.65,346.00 827.84,346.45 827.50,347.00 C827.16,347.55 827.36,348.00 827.94,348.00 C828.52,348.00 829.00,348.64 829.00,349.43 C829.00,350.21 829.58,351.45 830.28,352.18 C832.46,354.43 835.98,361.00 835.01,361.00 C834.50,361.00 832.21,357.74 829.90,353.75 ZM 699.26 355.80 C699.17,354.59 698.11,350.98 696.91,347.77 C695.71,344.56 694.98,341.69 695.27,341.39 C695.94,340.73 704.00,345.96 704.00,347.05 C704.00,347.49 705.40,348.15 707.11,348.52 L 710.21 349.21 L 705.90 353.60 C701.08,358.52 699.50,359.04 699.26,355.80 ZM 640.09 319.25 C641.34,317.19 643.79,313.25 645.54,310.50 C661.93,284.78 693.00,225.16 693.00,219.42 C693.00,218.64 693.45,218.00 694.00,218.00 C694.55,218.00 695.00,218.45 695.00,219.00 C695.00,220.95 695.18,221.51 696.21,222.75 C696.93,223.62 696.91,224.00 696.12,224.00 C695.51,224.00 695.00,223.55 695.00,223.00 C695.00,219.98 692.98,223.05 689.57,231.25 C687.46,236.34 685.10,241.53 684.32,242.78 C683.55,244.03 683.19,245.49 683.51,246.02 C684.45,247.54 685.26,258.58 685.22,269.27 C685.18,278.37 685.33,279.16 687.51,280.77 L 689.85 282.50 L 685.28 291.00 C678.17,304.22 673.08,312.62 671.08,314.43 C668.82,316.48 666.67,316.12 665.97,313.58 C665.68,312.52 664.02,311.17 662.27,310.58 C660.53,309.99 658.16,308.49 657.01,307.25 C654.61,304.66 653.91,304.52 652.05,306.25 C650.96,307.27 650.86,307.22 651.55,306.00 C652.25,304.74 652.13,304.70 650.79,305.79 C649.92,306.50 646.85,310.66 643.97,315.04 C638.63,323.18 636.03,326.00 640.09,319.25 ZM 613.59 287.21 C612.09,281.87 610.43,275.81 609.89,273.75 C609.36,271.69 608.49,270.00 607.96,270.00 C607.43,270.00 607.00,269.07 607.00,267.94 C607.00,266.13 606.56,265.95 603.38,266.45 C601.39,266.77 599.35,267.28 598.84,267.60 C597.69,268.31 598.49,264.76 601.69,255.00 C604.22,247.29 611.52,233.00 612.94,233.00 C613.37,233.00 613.07,235.81 612.26,239.25 C610.47,246.89 611.12,271.42 613.36,280.25 C614.16,283.41 614.58,286.00 614.29,286.00 C613.99,286.00 614.23,286.57 614.81,287.27 C615.40,287.98 616.02,289.66 616.21,291.02 C616.40,292.39 616.88,294.03 617.29,294.68 C617.70,295.33 617.64,296.10 617.17,296.39 C616.70,296.69 615.09,292.56 613.59,287.21 ZM 708.57 294.75 C709.10,290.72 710.68,283.67 713.03,274.89 L 715.33 266.28 L 712.58 261.39 C709.86,256.54 698.00,231.39 698.00,230.48 C698.00,230.21 698.48,230.00 699.06,230.00 C699.64,230.00 699.84,230.45 699.50,231.00 C699.16,231.55 699.39,232.00 700.00,232.00 C700.61,232.00 700.84,232.45 700.50,233.00 C700.16,233.55 700.36,234.00 700.94,234.00 C701.52,234.00 701.90,234.34 701.79,234.75 C701.67,235.16 702.10,236.45 702.75,237.62 C703.40,238.78 703.65,240.02 703.30,240.37 C702.95,240.72 703.22,241.00 703.89,241.00 C704.57,241.00 704.84,241.45 704.50,242.00 C704.16,242.55 704.39,243.00 705.00,243.00 C705.61,243.00 705.84,243.45 705.50,244.00 C705.16,244.55 705.43,245.00 706.11,245.00 C706.78,245.00 707.07,245.26 706.75,245.58 C706.23,246.11 712.14,258.09 721.11,274.64 L 724.43 280.78 L 719.56 286.64 C714.73,292.46 710.06,296.99 708.89,297.00 C708.55,297.00 708.41,295.99 708.57,294.75 ZM 626.08 280.30 C623.67,271.34 622.85,264.94 622.78,254.34 L 622.70 243.19 L 630.91 227.34 C641.15,207.57 668.88,151.34 680.01,127.78 C684.62,118.03 688.51,110.18 688.67,110.34 C688.83,110.49 685.82,117.57 681.98,126.06 C676.66,137.82 675.14,142.17 675.59,144.30 C676.04,146.42 675.65,147.57 674.00,149.00 C671.71,150.99 672.04,153.00 674.67,153.00 C675.76,153.00 675.99,153.51 675.46,154.75 C674.67,156.59 674.67,156.85 675.27,164.00 C675.48,166.48 675.73,169.69 675.82,171.14 C675.95,173.08 676.69,173.96 678.59,174.43 C680.37,174.88 681.00,175.56 680.60,176.59 C680.28,177.42 680.44,177.85 680.94,177.54 C684.27,175.48 681.16,182.82 666.22,212.24 C651.62,240.99 636.39,269.25 629.24,280.89 L 627.15 284.28 L 626.08 280.30 ZM 737.23 242.04 L 731.96 232.11 L 733.93 228.88 C735.01,227.10 735.67,225.27 735.39,224.82 C735.11,224.37 735.56,222.77 736.39,221.25 C737.21,219.74 738.93,216.13 740.19,213.24 C741.83,209.50 742.93,208.14 743.98,208.54 C744.82,208.87 744.49,208.09 743.22,206.73 C741.99,205.42 741.20,204.13 741.47,203.86 C741.99,203.34 731.06,179.00 724.15,165.27 C721.87,160.75 720.01,156.70 720.02,156.27 C720.04,155.24 734.79,183.22 735.19,185.06 C735.36,185.85 735.78,186.73 736.12,187.00 C736.47,187.27 738.79,191.57 741.28,196.54 C743.77,201.50 748.32,210.18 751.40,215.81 L 756.99 226.05 L 750.49 239.03 C746.91,246.16 743.65,251.99 743.24,251.98 C742.83,251.98 740.13,247.50 737.23,242.04 Z" fill="rgb(231,211,151)"/>
</g>
</svg>